<?xml version="1.0" encoding="UTF-8" standalone="no"?>
<!-- Created with Inkscape (http://www.inkscape.org/) -->

<svg
   xmlns:dc="http://purl.org/dc/elements/1.1/"
   xmlns:cc="http://creativecommons.org/ns#"
   xmlns:rdf="http://www.w3.org/1999/02/22-rdf-syntax-ns#"
   xmlns:svg="http://www.w3.org/2000/svg"
   xmlns="http://www.w3.org/2000/svg"
   xmlns:sodipodi="http://sodipodi.sourceforge.net/DTD/sodipodi-0.dtd"
   xmlns:inkscape="http://www.inkscape.org/namespaces/inkscape"
   width="210mm"
   height="297mm"
   viewBox="0 0 210 297"
   version="1.1"
   id="svg8"
   inkscape:version="0.92.4 (5da689c313, 2019-01-14)"
   sodipodi:docname="Recursos.svg">
  <defs
     id="defs2">
    <clipPath
       clipPathUnits="userSpaceOnUse"
       id="clipPath924">
      <rect
         y="-137.01286"
         x="-385.93967"
         height="187.55313"
         width="168.5947"
         id="rect926"
         style="fill:#000000;fill-opacity:1;stroke:none;stroke-width:0.41100001;stroke-miterlimit:4;stroke-dasharray:none;stroke-opacity:1" />
    </clipPath>
  </defs>
  <sodipodi:namedview
     id="base"
     pagecolor="#ffffff"
     bordercolor="#666666"
     borderopacity="1.0"
     inkscape:pageopacity="0.0"
     inkscape:pageshadow="2"
     inkscape:zoom="0.27631402"
     inkscape:cx="-371.53554"
     inkscape:cy="762.9379"
     inkscape:document-units="mm"
     inkscape:current-layer="layer1"
     showgrid="false"
     inkscape:window-width="1280"
     inkscape:window-height="738"
     inkscape:window-x="-8"
     inkscape:window-y="-8"
     inkscape:window-maximized="1"
     inkscape:pagecheckerboard="true"
     showguides="false" />
  <metadata
     id="metadata5">
    <rdf:RDF>
      <cc:Work
         rdf:about="">
        <dc:format>image/svg+xml</dc:format>
        <dc:type
           rdf:resource="http://purl.org/dc/dcmitype/StillImage" />
        <dc:title />
      </cc:Work>
    </rdf:RDF>
  </metadata>
  <g
     inkscape:label="Capa 1"
     inkscape:groupmode="layer"
     id="layer1">
    <g
       id="g844"
       inkscape:export-filename="D:\Desktop\Graficos\Project L\cube.png"
       inkscape:export-xdpi="96"
       inkscape:export-ydpi="96">
      <rect
         y="117.5369"
         x="-207.13094"
         height="16.933332"
         width="16.933332"
         id="rect817"
         style="fill:#000000;fill-opacity:1;stroke:none;stroke-width:0.04992137;stroke-miterlimit:4;stroke-dasharray:none;stroke-opacity:1" />
      <g
         transform="translate(2.7609483)"
         id="g825">
        <rect
           style="fill:#ffffff;fill-opacity:1;stroke:none;stroke-width:0.22461316;stroke-miterlimit:4;stroke-dasharray:none;stroke-opacity:1"
           id="rect819"
           width="2.1166666"
           height="2.1166666"
           x="-205.12935"
           y="120.51146" />
        <rect
           y="120.51146"
           x="-199.83775"
           height="2.1166666"
           width="2.1166666"
           id="rect821"
           style="fill:#ffffff;fill-opacity:1;stroke:none;stroke-width:0.22461316;stroke-miterlimit:4;stroke-dasharray:none;stroke-opacity:1" />
      </g>
      <rect
         y="128.37442"
         x="-201.83926"
         height="2.1166666"
         width="6.3499999"
         id="rect827"
         style="fill:#ffffff;fill-opacity:1;stroke:none;stroke-width:0.3393524;stroke-miterlimit:4;stroke-dasharray:none;stroke-opacity:1" />
    </g>
    <g
       id="g1108">
      <rect
         style="fill:#0000ff;fill-opacity:1;stroke:none;stroke-width:0.04992137;stroke-miterlimit:4;stroke-dasharray:none;stroke-opacity:1"
         id="rect829"
         width="16.933332"
         height="16.933332"
         x="-165.30325"
         y="118.73962" />
      <rect
         ry="1.0583333"
         style="fill:#ffffff;fill-opacity:1;stroke:none;stroke-width:0.22461316;stroke-miterlimit:4;stroke-dasharray:none;stroke-opacity:1"
         id="rect831"
         width="2.1166666"
         height="2.1166666"
         x="-160.54073"
         y="121.71417" />
      <rect
         ry="1.0583333"
         y="121.71417"
         x="-155.24913"
         height="2.1166666"
         width="2.1166666"
         id="rect833"
         style="fill:#ffffff;fill-opacity:1;stroke:none;stroke-width:0.22461316;stroke-miterlimit:4;stroke-dasharray:none;stroke-opacity:1" />
      <path
         sodipodi:nodetypes="ccccccccc"
         inkscape:connector-curvature="0"
         id="rect837"
         d="m -160.01158,129.57713 h 2.99073 1.73725 1.62202 v 2.11667 h -1.22111 -1.93771 -3.19118 z"
         style="fill:#ffffff;fill-opacity:1;stroke:none;stroke-width:0.3393524;stroke-miterlimit:4;stroke-dasharray:none;stroke-opacity:1" />
      <rect
         y="122.24334"
         x="-160.01157"
         height="1.0583333"
         width="1.0583333"
         id="rect857"
         style="fill:#000000;fill-opacity:1;stroke:none;stroke-width:0.11230658;stroke-miterlimit:4;stroke-dasharray:none;stroke-opacity:1"
         ry="0.52916664" />
      <rect
         ry="0.52916664"
         style="fill:#000000;fill-opacity:1;stroke:none;stroke-width:0.11230658;stroke-miterlimit:4;stroke-dasharray:none;stroke-opacity:1"
         id="rect859"
         width="1.0583333"
         height="1.0583333"
         x="-154.71997"
         y="122.24334" />
    </g>
    <ellipse
       style="fill:none;fill-opacity:1;stroke:#000000;stroke-width:0.46792999;stroke-miterlimit:4;stroke-dasharray:none;stroke-opacity:1"
       id="path884"
       cx="-139.26469"
       cy="129.90698"
       rx="1.8827018"
       ry="1.8827016"
       inkscape:export-filename="D:\Desktop\Graficos\Project L\shoot.png"
       inkscape:export-xdpi="96"
       inkscape:export-ydpi="96" />
    <circle
       style="fill:#1a1a1a;fill-opacity:1;stroke:none;stroke-width:0.32684481;stroke-miterlimit:4;stroke-dasharray:none;stroke-opacity:1"
       id="path1092"
       cx="-213.36894"
       cy="150.93019"
       r="4.2333331" />
    <path
       style="fill:#ffffff;fill-opacity:1;stroke:none;stroke-width:0.44918945;stroke-miterlimit:4;stroke-dasharray:none;stroke-opacity:1"
       d="m -214.33648,147.93678 2.99341,2.99342 -2.99341,2.99341 z"
       id="rect1094"
       inkscape:connector-curvature="0"
       sodipodi:nodetypes="cccc" />
    <circle
       r="4.2333331"
       cy="150.45142"
       cx="223.21371"
       id="circle1097"
       style="fill:#1a1a1a;fill-opacity:1;stroke:none;stroke-width:0.32684481;stroke-miterlimit:4;stroke-dasharray:none;stroke-opacity:1"
       transform="scale(-1,1)" />
    <path
       sodipodi:nodetypes="cccc"
       inkscape:connector-curvature="0"
       id="path1099"
       d="m -222.24617,147.45801 -2.99341,2.99342 2.99341,2.99341 z"
       style="fill:#ffffff;fill-opacity:1;stroke:none;stroke-width:0.44918945;stroke-miterlimit:4;stroke-dasharray:none;stroke-opacity:1" />
    <g
       id="g1107"
       transform="rotate(90,-218.24644,141.47442)">
      <circle
         r="4.2333331"
         cy="141.53427"
         cx="217.88736"
         id="circle1101"
         style="fill:#1a1a1a;fill-opacity:1;stroke:none;stroke-width:0.32684481;stroke-miterlimit:4;stroke-dasharray:none;stroke-opacity:1"
         transform="scale(-1,1)" />
      <path
         sodipodi:nodetypes="cccc"
         inkscape:connector-curvature="0"
         id="path1103"
         d="m -216.91982,138.54086 -2.99341,2.99342 2.99341,2.99341 z"
         style="fill:#ffffff;fill-opacity:1;stroke:none;stroke-width:0.44918945;stroke-miterlimit:4;stroke-dasharray:none;stroke-opacity:1" />
    </g>
    <g
       transform="rotate(-90,-209.74822,150.75065)"
       id="g1113">
      <circle
         transform="scale(-1,1)"
         style="fill:#1a1a1a;fill-opacity:1;stroke:none;stroke-width:0.32684481;stroke-miterlimit:4;stroke-dasharray:none;stroke-opacity:1"
         id="circle1109"
         cx="217.88736"
         cy="141.53427"
         r="4.2333331" />
      <path
         style="fill:#ffffff;fill-opacity:1;stroke:none;stroke-width:0.44918945;stroke-miterlimit:4;stroke-dasharray:none;stroke-opacity:1"
         d="m -216.91982,138.54086 -2.99341,2.99342 2.99341,2.99341 z"
         id="path1111"
         inkscape:connector-curvature="0"
         sodipodi:nodetypes="cccc" />
    </g>
    <g
       id="g1280"
       inkscape:export-filename="D:\Desktop\Graficos\Project L\enemy_lv1.png"
       inkscape:export-xdpi="96"
       inkscape:export-ydpi="96">
      <rect
         style="fill:#55d400;fill-opacity:1;stroke:none;stroke-width:0.04992137;stroke-miterlimit:4;stroke-dasharray:none;stroke-opacity:1"
         id="rect928"
         width="16.933332"
         height="16.933332"
         x="-270.08957"
         y="143.15126" />
      <rect
         style="fill:#ffffff;fill-opacity:1;stroke:none;stroke-width:0.3393524;stroke-miterlimit:4;stroke-dasharray:none;stroke-opacity:1"
         id="rect936"
         width="6.3499999"
         height="2.1166666"
         x="-264.79791"
         y="153.98877" />
      <g
         id="g955">
        <rect
           y="146.12581"
           x="-265.32703"
           height="2.1166666"
           width="2.1166666"
           id="rect930"
           style="fill:#ffffff;fill-opacity:1;stroke:none;stroke-width:0.22461316;stroke-miterlimit:4;stroke-dasharray:none;stroke-opacity:1" />
        <rect
           style="fill:#ffffff;fill-opacity:1;stroke:none;stroke-width:0.22461316;stroke-miterlimit:4;stroke-dasharray:none;stroke-opacity:1"
           id="rect932"
           width="2.1166666"
           height="2.1166666"
           x="-260.03543"
           y="146.12581" />
        <rect
           style="fill:#000000;fill-opacity:1;stroke:none;stroke-width:0.21894443;stroke-miterlimit:4;stroke-dasharray:none;stroke-opacity:1"
           id="rect947"
           width="1.0583333"
           height="1.0583333"
           x="-264.79785"
           y="146.65497" />
        <rect
           y="146.65497"
           x="-259.50626"
           height="1.0583333"
           width="1.0583333"
           id="rect949"
           style="fill:#000000;fill-opacity:1;stroke:none;stroke-width:0.21894443;stroke-miterlimit:4;stroke-dasharray:none;stroke-opacity:1" />
      </g>
    </g>
    <g
       id="g1026"
       inkscape:export-filename="D:\Desktop\Graficos\Project L\enemy_lv2.png"
       inkscape:export-xdpi="96"
       inkscape:export-ydpi="96">
      <rect
         y="164.84703"
         x="-270.08957"
         height="16.933332"
         width="16.933332"
         id="rect959"
         style="fill:#ffff00;fill-opacity:1;stroke:none;stroke-width:0.04992137;stroke-miterlimit:4;stroke-dasharray:none;stroke-opacity:1" />
      <rect
         y="175.68454"
         x="-264.79791"
         height="2.1166666"
         width="6.3499999"
         id="rect961"
         style="fill:#ffffff;fill-opacity:1;stroke:none;stroke-width:0.3393524;stroke-miterlimit:4;stroke-dasharray:none;stroke-opacity:1" />
      <g
         transform="translate(0,21.695837)"
         id="g971">
        <rect
           style="fill:#ffffff;fill-opacity:1;stroke:none;stroke-width:0.22461316;stroke-miterlimit:4;stroke-dasharray:none;stroke-opacity:1"
           id="rect963"
           width="2.1166666"
           height="2.1166666"
           x="-265.32703"
           y="146.12581" />
        <rect
           y="146.12581"
           x="-260.03543"
           height="2.1166666"
           width="2.1166666"
           id="rect965"
           style="fill:#ffffff;fill-opacity:1;stroke:none;stroke-width:0.22461316;stroke-miterlimit:4;stroke-dasharray:none;stroke-opacity:1" />
        <rect
           y="146.65497"
           x="-264.79785"
           height="1.0583333"
           width="1.0583333"
           id="rect967"
           style="fill:#000000;fill-opacity:1;stroke:none;stroke-width:0.21894443;stroke-miterlimit:4;stroke-dasharray:none;stroke-opacity:1" />
        <rect
           style="fill:#000000;fill-opacity:1;stroke:none;stroke-width:0.21894443;stroke-miterlimit:4;stroke-dasharray:none;stroke-opacity:1"
           id="rect969"
           width="1.0583333"
           height="1.0583333"
           x="-259.50626"
           y="146.65497" />
      </g>
    </g>
    <g
       id="g1017"
       inkscape:export-filename="D:\Desktop\Graficos\Project L\enemy_lv3.png"
       inkscape:export-xdpi="96"
       inkscape:export-ydpi="96">
      <rect
         style="fill:#ffcc00;fill-opacity:1;stroke:none;stroke-width:0.04992137;stroke-miterlimit:4;stroke-dasharray:none;stroke-opacity:1"
         id="rect973"
         width="16.933332"
         height="16.933332"
         x="-269.92029"
         y="184.01595" />
      <rect
         style="fill:#ffffff;fill-opacity:1;stroke:none;stroke-width:0.3393524;stroke-miterlimit:4;stroke-dasharray:none;stroke-opacity:1"
         id="rect975"
         width="6.3499999"
         height="2.1166666"
         x="-264.62863"
         y="194.85345" />
      <g
         id="g985"
         transform="translate(0.16927179,40.864711)">
        <rect
           y="146.12581"
           x="-265.32703"
           height="2.1166666"
           width="2.1166666"
           id="rect977"
           style="fill:#ffffff;fill-opacity:1;stroke:none;stroke-width:0.22461316;stroke-miterlimit:4;stroke-dasharray:none;stroke-opacity:1" />
        <rect
           style="fill:#ffffff;fill-opacity:1;stroke:none;stroke-width:0.22461316;stroke-miterlimit:4;stroke-dasharray:none;stroke-opacity:1"
           id="rect979"
           width="2.1166666"
           height="2.1166666"
           x="-260.03543"
           y="146.12581" />
        <rect
           style="fill:#000000;fill-opacity:1;stroke:none;stroke-width:0.21894443;stroke-miterlimit:4;stroke-dasharray:none;stroke-opacity:1"
           id="rect981"
           width="1.0583333"
           height="1.0583333"
           x="-264.79785"
           y="146.65497" />
        <rect
           y="146.65497"
           x="-259.50626"
           height="1.0583333"
           width="1.0583333"
           id="rect983"
           style="fill:#000000;fill-opacity:1;stroke:none;stroke-width:0.21894443;stroke-miterlimit:4;stroke-dasharray:none;stroke-opacity:1" />
      </g>
    </g>
    <g
       id="g1008"
       inkscape:export-filename="D:\Desktop\Graficos\Project L\enemy_lv4.png"
       inkscape:export-xdpi="96"
       inkscape:export-ydpi="96">
      <rect
         y="202.74107"
         x="-270.4281"
         height="16.933332"
         width="16.933332"
         id="rect987"
         style="fill:#ff2a2a;fill-opacity:1;stroke:none;stroke-width:0.04992137;stroke-miterlimit:4;stroke-dasharray:none;stroke-opacity:1" />
      <rect
         y="213.57858"
         x="-265.13644"
         height="2.1166666"
         width="6.3499999"
         id="rect989"
         style="fill:#ffffff;fill-opacity:1;stroke:none;stroke-width:0.3393524;stroke-miterlimit:4;stroke-dasharray:none;stroke-opacity:1" />
      <g
         transform="translate(-0.33854357,59.589824)"
         id="g999">
        <rect
           style="fill:#ffffff;fill-opacity:1;stroke:none;stroke-width:0.22461316;stroke-miterlimit:4;stroke-dasharray:none;stroke-opacity:1"
           id="rect991"
           width="2.1166666"
           height="2.1166666"
           x="-265.32703"
           y="146.12581" />
        <rect
           y="146.12581"
           x="-260.03543"
           height="2.1166666"
           width="2.1166666"
           id="rect993"
           style="fill:#ffffff;fill-opacity:1;stroke:none;stroke-width:0.22461316;stroke-miterlimit:4;stroke-dasharray:none;stroke-opacity:1" />
        <rect
           y="146.65497"
           x="-264.79785"
           height="1.0583333"
           width="1.0583333"
           id="rect995"
           style="fill:#000000;fill-opacity:1;stroke:none;stroke-width:0.21894443;stroke-miterlimit:4;stroke-dasharray:none;stroke-opacity:1" />
        <rect
           style="fill:#000000;fill-opacity:1;stroke:none;stroke-width:0.21894443;stroke-miterlimit:4;stroke-dasharray:none;stroke-opacity:1"
           id="rect997"
           width="1.0583333"
           height="1.0583333"
           x="-259.50626"
           y="146.65497" />
      </g>
    </g>
    <g
       id="g1099"
       inkscape:export-filename="D:\Desktop\Graficos\Project L\lady.png"
       inkscape:export-xdpi="96"
       inkscape:export-ydpi="96">
      <rect
         y="140.96454"
         x="-165.30325"
         height="16.933332"
         width="16.933332"
         id="rect1037"
         style="fill:#ff2a7f;fill-opacity:1;stroke:none;stroke-width:0.04992137;stroke-miterlimit:4;stroke-dasharray:none;stroke-opacity:1" />
      <rect
         y="143.9391"
         x="-160.54073"
         height="2.1166666"
         width="2.1166666"
         id="rect1039"
         style="fill:#ffffff;fill-opacity:1;stroke:none;stroke-width:0.22461316;stroke-miterlimit:4;stroke-dasharray:none;stroke-opacity:1"
         ry="1.0583333" />
      <rect
         style="fill:#ffffff;fill-opacity:1;stroke:none;stroke-width:0.22461316;stroke-miterlimit:4;stroke-dasharray:none;stroke-opacity:1"
         id="rect1041"
         width="2.1166666"
         height="2.1166666"
         x="-155.24913"
         y="143.9391"
         ry="1.0583333" />
      <path
         style="fill:#ffffff;fill-opacity:1;stroke:none;stroke-width:0.3393524;stroke-miterlimit:4;stroke-dasharray:none;stroke-opacity:1"
         d="m -160.01158,151.80216 h 2.99073 1.73725 1.62202 v 2.11667 h -1.22111 -1.93771 -3.19118 z"
         id="path1043"
         inkscape:connector-curvature="0"
         sodipodi:nodetypes="ccccccccc" />
      <rect
         ry="0.52916664"
         style="fill:#000000;fill-opacity:1;stroke:none;stroke-width:0.11230658;stroke-miterlimit:4;stroke-dasharray:none;stroke-opacity:1"
         id="rect1045"
         width="1.0583333"
         height="1.0583333"
         x="-160.01157"
         y="144.46826" />
      <rect
         y="144.46826"
         x="-154.71997"
         height="1.0583333"
         width="1.0583333"
         id="rect1047"
         style="fill:#000000;fill-opacity:1;stroke:none;stroke-width:0.11230658;stroke-miterlimit:4;stroke-dasharray:none;stroke-opacity:1"
         ry="0.52916664" />
    </g>
    <g
       id="g1091"
       inkscape:export-filename="D:\Desktop\Graficos\Project L\npc.png"
       inkscape:export-xdpi="96"
       inkscape:export-ydpi="96">
      <rect
         style="fill:#dcdc32;fill-opacity:1;stroke:none;stroke-width:0.04992137;stroke-miterlimit:4;stroke-dasharray:none;stroke-opacity:1"
         id="rect1049"
         width="16.933332"
         height="16.933332"
         x="-165.30325"
         y="161.0726" />
      <rect
         ry="1.0583333"
         style="fill:#ffffff;fill-opacity:1;stroke:none;stroke-width:0.22461316;stroke-miterlimit:4;stroke-dasharray:none;stroke-opacity:1"
         id="rect1051"
         width="2.1166666"
         height="2.1166666"
         x="-160.54073"
         y="164.04716" />
      <rect
         ry="1.0583333"
         y="164.04716"
         x="-155.24913"
         height="2.1166666"
         width="2.1166666"
         id="rect1053"
         style="fill:#ffffff;fill-opacity:1;stroke:none;stroke-width:0.22461316;stroke-miterlimit:4;stroke-dasharray:none;stroke-opacity:1" />
      <path
         sodipodi:nodetypes="ccccccccc"
         inkscape:connector-curvature="0"
         id="path1055"
         d="m -160.01158,171.91062 h 2.99073 1.73725 1.62202 v 2.11667 h -1.22111 -1.93771 -3.19118 z"
         style="fill:#ffffff;fill-opacity:1;stroke:none;stroke-width:0.3393524;stroke-miterlimit:4;stroke-dasharray:none;stroke-opacity:1" />
      <rect
         y="164.57632"
         x="-160.01157"
         height="1.0583333"
         width="1.0583333"
         id="rect1057"
         style="fill:#000000;fill-opacity:1;stroke:none;stroke-width:0.11230658;stroke-miterlimit:4;stroke-dasharray:none;stroke-opacity:1"
         ry="0.52916664" />
      <rect
         ry="0.52916664"
         style="fill:#000000;fill-opacity:1;stroke:none;stroke-width:0.11230658;stroke-miterlimit:4;stroke-dasharray:none;stroke-opacity:1"
         id="rect1059"
         width="1.0583333"
         height="1.0583333"
         x="-154.71997"
         y="164.57632" />
    </g>
    <g
       id="g1264"
       inkscape:export-filename="D:\Desktop\Graficos\Project L\boss.png"
       inkscape:export-xdpi="96"
       inkscape:export-ydpi="96">
      <rect
         inkscape:export-ydpi="96"
         inkscape:export-xdpi="96"
         inkscape:export-filename="D:\Desktop\Graficos\Project L\boss.png"
         style="fill:#b3b3b3;fill-opacity:1;stroke:none;stroke-width:0.04992137;stroke-miterlimit:4;stroke-dasharray:none;stroke-opacity:1"
         id="rect1061"
         width="16.933332"
         height="16.933332"
         x="-219.67818"
         y="200.34721" />
      <path
         sodipodi:nodetypes="cccccc"
         inkscape:connector-curvature="0"
         id="rect1063"
         d="m -214.38652,211.18472 h 2.28897 4.06103 v 2.11667 h -6.35 z"
         style="fill:#ffffff;fill-opacity:1;stroke:none;stroke-width:0.3393524;stroke-miterlimit:4;stroke-dasharray:none;stroke-opacity:1" />
      <g
         id="g1073"
         transform="translate(50.411384,57.195959)">
        <rect
           y="146.12581"
           x="-265.32703"
           height="2.1166666"
           width="2.1166666"
           id="rect1065"
           style="fill:#ffffff;fill-opacity:1;stroke:none;stroke-width:0.22461316;stroke-miterlimit:4;stroke-dasharray:none;stroke-opacity:1" />
        <rect
           style="fill:#ffffff;fill-opacity:1;stroke:none;stroke-width:0.22461316;stroke-miterlimit:4;stroke-dasharray:none;stroke-opacity:1"
           id="rect1067"
           width="2.1166666"
           height="2.1166666"
           x="-260.03543"
           y="146.12581" />
        <rect
           style="fill:#000000;fill-opacity:1;stroke:none;stroke-width:0.21894443;stroke-miterlimit:4;stroke-dasharray:none;stroke-opacity:1"
           id="rect1069"
           width="1.0583333"
           height="1.0583333"
           x="-264.79785"
           y="146.65497" />
        <rect
           y="146.65497"
           x="-259.50626"
           height="1.0583333"
           width="1.0583333"
           id="rect1071"
           style="fill:#000000;fill-opacity:1;stroke:none;stroke-width:0.21894443;stroke-miterlimit:4;stroke-dasharray:none;stroke-opacity:1" />
      </g>
    </g>
    <g
       id="g1255"
       inkscape:export-filename="D:\Desktop\Graficos\Project L\boss_final.png"
       inkscape:export-xdpi="96"
       inkscape:export-ydpi="96">
      <rect
         y="195.60454"
         x="-192.4285"
         height="33.866665"
         width="33.866665"
         id="rect1118"
         style="fill:#808080;fill-opacity:1;stroke:none;stroke-width:0.09984274;stroke-miterlimit:4;stroke-dasharray:none;stroke-opacity:1" />
      <path
         style="fill:#ffffff;fill-opacity:1;stroke:none;stroke-width:0.6787048;stroke-miterlimit:4;stroke-dasharray:none;stroke-opacity:1"
         d="m -181.84517,217.27954 h 4.57794 8.12206 v 4.23334 h -12.7 z"
         id="path1120"
         inkscape:connector-curvature="0"
         sodipodi:nodetypes="cccccc" />
      <g
         transform="matrix(2,0,0,2,347.75063,-90.697988)"
         id="g1130">
        <rect
           style="fill:#ffffff;fill-opacity:1;stroke:none;stroke-width:0.22461316;stroke-miterlimit:4;stroke-dasharray:none;stroke-opacity:1"
           id="rect1122"
           width="2.1166666"
           height="2.1166666"
           x="-265.32703"
           y="146.12581" />
        <rect
           y="146.12581"
           x="-260.03543"
           height="2.1166666"
           width="2.1166666"
           id="rect1124"
           style="fill:#ffffff;fill-opacity:1;stroke:none;stroke-width:0.22461316;stroke-miterlimit:4;stroke-dasharray:none;stroke-opacity:1" />
        <rect
           y="146.65497"
           x="-264.79785"
           height="1.0583333"
           width="1.0583333"
           id="rect1126"
           style="fill:#000000;fill-opacity:1;stroke:none;stroke-width:0.21894443;stroke-miterlimit:4;stroke-dasharray:none;stroke-opacity:1" />
        <rect
           style="fill:#000000;fill-opacity:1;stroke:none;stroke-width:0.21894443;stroke-miterlimit:4;stroke-dasharray:none;stroke-opacity:1"
           id="rect1128"
           width="1.0583333"
           height="1.0583333"
           x="-259.50626"
           y="146.65497" />
      </g>
    </g>
    <g
       id="g1246"
       inkscape:export-filename="D:\Desktop\Graficos\Project L\grass.png"
       inkscape:export-xdpi="96"
       inkscape:export-ydpi="96">
      <rect
         ry="0"
         y="146.93968"
         x="-201.99727"
         height="25.4"
         width="25.4"
         id="rect886"
         style="fill:#00ff00;fill-opacity:1;stroke:none;stroke-width:1.03127825;stroke-miterlimit:4;stroke-dasharray:none;stroke-opacity:1" />
      <path
         style="fill:#008000;fill-opacity:1;stroke:none;stroke-width:2.05500007;stroke-miterlimit:4;stroke-dasharray:none;stroke-opacity:1"
         d="m -195.70562,149.82726 0.401,-0.1044 0.54132,-0.002 0.52892,0.04 0.51572,0.1156 0.3588,0.1816 0.1644,0.252 0.0792,0.39 0.3248,-0.3996 0.471,-0.3152 0.2952,-0.1504 0.54128,-0.0896 0.47648,-0.008 0.499,0.0936 v 0.47248 l -0.97324,0.028 -0.59372,0.2432 -0.432,0.268 -0.3516,0.262 -0.2904,0.5916 -0.3416,-0.60616 -0.244,-0.206 -0.482,-0.276 -1.48856,-0.3068 z"
         id="path932"
         inkscape:connector-curvature="0"
         sodipodi:nodetypes="ccccccccccccccccccccccccc" />
      <path
         sodipodi:nodetypes="ccccccccccccccccccccccccc"
         inkscape:connector-curvature="0"
         id="path1202"
         d="m -183.01813,164.54953 0.401,-0.1044 0.54132,-0.002 0.52892,0.04 0.51572,0.1156 0.3588,0.1816 0.1644,0.252 0.0792,0.39 0.3248,-0.3996 0.471,-0.3152 0.2952,-0.1504 0.54128,-0.0896 0.47648,-0.008 0.499,0.0936 v 0.47248 l -0.97324,0.028 -0.59372,0.2432 -0.432,0.268 -0.3516,0.262 -0.2904,0.5916 -0.3416,-0.60616 -0.244,-0.206 -0.482,-0.276 -1.48856,-0.3068 z"
         style="fill:#008000;fill-opacity:1;stroke:none;stroke-width:2.05500007;stroke-miterlimit:4;stroke-dasharray:none;stroke-opacity:1" />
      <path
         style="fill:#008000;fill-opacity:1;stroke:none;stroke-width:2.05500007;stroke-miterlimit:4;stroke-dasharray:none;stroke-opacity:1"
         d="m -200.73273,162.51474 0.401,-0.1044 0.54132,-0.002 0.52892,0.04 0.51572,0.1156 0.3588,0.1816 0.1644,0.252 0.0792,0.39 0.3248,-0.3996 0.471,-0.3152 0.2952,-0.1504 0.54128,-0.0896 0.47648,-0.008 0.499,0.0936 v 0.47248 l -0.97324,0.028 -0.59372,0.2432 -0.432,0.268 -0.3516,0.262 -0.2904,0.5916 -0.3416,-0.60616 -0.244,-0.206 -0.482,-0.276 -1.48856,-0.3068 z"
         id="path1204"
         inkscape:connector-curvature="0"
         sodipodi:nodetypes="ccccccccccccccccccccccccc" />
      <path
         sodipodi:nodetypes="ccccccccccccccccccccccccc"
         inkscape:connector-curvature="0"
         id="path1206"
         d="m -201.09181,147.91217 0.401,-0.1044 0.54132,-0.002 0.52892,0.04 0.51572,0.1156 0.3588,0.1816 0.1644,0.252 0.0792,0.39 0.3248,-0.3996 0.471,-0.3152 0.2952,-0.1504 0.54128,-0.0896 0.47648,-0.008 0.499,0.0936 v 0.47248 l -0.97324,0.028 -0.59372,0.2432 -0.432,0.268 -0.3516,0.262 -0.2904,0.5916 -0.3416,-0.60616 -0.244,-0.206 -0.482,-0.276 -1.48856,-0.3068 z"
         style="fill:#008000;fill-opacity:1;stroke:none;stroke-width:2.05500007;stroke-miterlimit:4;stroke-dasharray:none;stroke-opacity:1" />
      <path
         style="fill:#008000;fill-opacity:1;stroke:none;stroke-width:2.05500007;stroke-miterlimit:4;stroke-dasharray:none;stroke-opacity:1"
         d="m -182.41967,149.1091 0.401,-0.1044 0.54132,-0.002 0.52892,0.04 0.51572,0.1156 0.3588,0.1816 0.1644,0.252 0.0792,0.39 0.3248,-0.3996 0.471,-0.3152 0.2952,-0.1504 0.54128,-0.0896 0.47648,-0.008 0.499,0.0936 v 0.47248 l -0.97324,0.028 -0.59372,0.2432 -0.432,0.268 -0.3516,0.262 -0.2904,0.5916 -0.3416,-0.60616 -0.244,-0.206 -0.482,-0.276 -1.48856,-0.3068 z"
         id="path1208"
         inkscape:connector-curvature="0"
         sodipodi:nodetypes="ccccccccccccccccccccccccc" />
      <path
         sodipodi:nodetypes="ccccccccccccccccccccccccc"
         inkscape:connector-curvature="0"
         id="path1210"
         d="m -193.91022,153.89683 0.401,-0.1044 0.54132,-0.002 0.52892,0.04 0.51572,0.1156 0.3588,0.1816 0.1644,0.252 0.0792,0.39 0.3248,-0.3996 0.471,-0.3152 0.2952,-0.1504 0.54128,-0.0896 0.47648,-0.008 0.499,0.0936 v 0.47248 l -0.97324,0.028 -0.59372,0.2432 -0.432,0.268 -0.3516,0.262 -0.2904,0.5916 -0.3416,-0.60616 -0.244,-0.206 -0.482,-0.276 -1.48856,-0.3068 z"
         style="fill:#008000;fill-opacity:1;stroke:none;stroke-width:2.05500007;stroke-miterlimit:4;stroke-dasharray:none;stroke-opacity:1" />
      <path
         style="fill:#008000;fill-opacity:1;stroke:none;stroke-width:2.05500007;stroke-miterlimit:4;stroke-dasharray:none;stroke-opacity:1"
         d="m -194.98745,168.85848 0.401,-0.1044 0.54132,-0.002 0.52892,0.04 0.51572,0.1156 0.3588,0.1816 0.1644,0.252 0.0792,0.39 0.3248,-0.3996 0.471,-0.3152 0.2952,-0.1504 0.54128,-0.0896 0.47648,-0.008 0.499,0.0936 v 0.47248 l -0.97324,0.028 -0.59372,0.2432 -0.432,0.268 -0.3516,0.262 -0.2904,0.5916 -0.3416,-0.60616 -0.244,-0.206 -0.482,-0.276 -1.48856,-0.3068 z"
         id="path1212"
         inkscape:connector-curvature="0"
         sodipodi:nodetypes="ccccccccccccccccccccccccc" />
      <path
         sodipodi:nodetypes="ccccccccccccccccccccccccc"
         inkscape:connector-curvature="0"
         id="path1214"
         d="m -184.80582,156.22081 0.401,-0.1044 0.54132,-0.002 0.52892,0.04 0.51572,0.1156 0.3588,0.1816 0.1644,0.252 0.0792,0.39 0.3248,-0.3996 0.471,-0.3152 0.2952,-0.1504 0.54128,-0.0896 0.47648,-0.008 0.499,0.0936 v 0.47248 l -0.97324,0.028 -0.59372,0.2432 -0.432,0.268 -0.3516,0.262 -0.2904,0.5916 -0.3416,-0.60616 -0.244,-0.206 -0.482,-0.276 -1.48856,-0.3068 z"
         style="fill:#008000;fill-opacity:1;stroke:none;stroke-width:2.05500007;stroke-miterlimit:4;stroke-dasharray:none;stroke-opacity:1" />
      <path
         style="fill:#008000;fill-opacity:1;stroke:none;stroke-width:2.05500007;stroke-miterlimit:4;stroke-dasharray:none;stroke-opacity:1"
         d="m -201.09181,154.61499 0.401,-0.1044 0.54132,-0.002 0.52892,0.04 0.51572,0.1156 0.3588,0.1816 0.1644,0.252 0.0792,0.39 0.3248,-0.3996 0.471,-0.3152 0.2952,-0.1504 0.54128,-0.0896 0.47648,-0.008 0.499,0.0936 v 0.47248 l -0.97324,0.028 -0.59372,0.2432 -0.432,0.268 -0.3516,0.262 -0.2904,0.5916 -0.3416,-0.60616 -0.244,-0.206 -0.482,-0.276 -1.48856,-0.3068 z"
         id="path1216"
         inkscape:connector-curvature="0"
         sodipodi:nodetypes="ccccccccccccccccccccccccc" />
      <path
         sodipodi:nodetypes="ccccccccccccccccccccccccc"
         inkscape:connector-curvature="0"
         id="path1218"
         d="m -185.412,167.78124 0.401,-0.1044 0.54132,-0.002 0.52892,0.04 0.51572,0.1156 0.3588,0.1816 0.1644,0.252 0.0792,0.39 0.3248,-0.3996 0.471,-0.3152 0.2952,-0.1504 0.54128,-0.0896 0.47648,-0.008 0.499,0.0936 v 0.47248 l -0.97324,0.028 -0.59372,0.2432 -0.432,0.268 -0.3516,0.262 -0.2904,0.5916 -0.3416,-0.60616 -0.244,-0.206 -0.482,-0.276 -1.48856,-0.3068 z"
         style="fill:#008000;fill-opacity:1;stroke:none;stroke-width:2.05500007;stroke-miterlimit:4;stroke-dasharray:none;stroke-opacity:1" />
      <path
         style="fill:#008000;fill-opacity:1;stroke:none;stroke-width:2.05500007;stroke-miterlimit:4;stroke-dasharray:none;stroke-opacity:1"
         d="m -200.61304,166.94339 0.401,-0.1044 0.54132,-0.002 0.52892,0.04 0.51572,0.1156 0.3588,0.1816 0.1644,0.252 0.0792,0.39 0.3248,-0.3996 0.471,-0.3152 0.2952,-0.1504 0.54128,-0.0896 0.47648,-0.008 0.499,0.0936 v 0.47248 l -0.97324,0.028 -0.59372,0.2432 -0.432,0.268 -0.3516,0.262 -0.2904,0.5916 -0.3416,-0.60616 -0.244,-0.206 -0.482,-0.276 -1.48856,-0.3068 z"
         id="path1220"
         inkscape:connector-curvature="0"
         sodipodi:nodetypes="ccccccccccccccccccccccccc" />
      <path
         sodipodi:nodetypes="ccccccccccccccccccccccccc"
         inkscape:connector-curvature="0"
         id="path1222"
         d="m -192.3542,165.0283 0.401,-0.1044 0.54132,-0.002 0.52892,0.04 0.51572,0.1156 0.3588,0.1816 0.1644,0.252 0.0792,0.39 0.3248,-0.3996 0.471,-0.3152 0.2952,-0.1504 0.54128,-0.0896 0.47648,-0.008 0.499,0.0936 v 0.47248 l -0.97324,0.028 -0.59372,0.2432 -0.432,0.268 -0.3516,0.262 -0.2904,0.5916 -0.3416,-0.60616 -0.244,-0.206 -0.482,-0.276 -1.48856,-0.3068 z"
         style="fill:#008000;fill-opacity:1;stroke:none;stroke-width:2.05500007;stroke-miterlimit:4;stroke-dasharray:none;stroke-opacity:1" />
      <path
         style="fill:#008000;fill-opacity:1;stroke:none;stroke-width:2.05500007;stroke-miterlimit:4;stroke-dasharray:none;stroke-opacity:1"
         d="m -187.92555,150.78481 0.401,-0.1044 0.54132,-0.002 0.52892,0.04 0.51572,0.1156 0.3588,0.1816 0.1644,0.252 0.0792,0.39 0.3248,-0.3996 0.471,-0.3152 0.2952,-0.1504 0.54128,-0.0896 0.47648,-0.008 0.499,0.0936 v 0.47248 l -0.97324,0.028 -0.59372,0.2432 -0.432,0.268 -0.3516,0.262 -0.2904,0.5916 -0.3416,-0.60616 -0.244,-0.206 -0.482,-0.276 -1.48856,-0.3068 z"
         id="path1224"
         inkscape:connector-curvature="0"
         sodipodi:nodetypes="ccccccccccccccccccccccccc" />
      <path
         sodipodi:nodetypes="ccccccccccccccccccccccccc"
         inkscape:connector-curvature="0"
         id="path1226"
         d="m -185.89077,161.4375 0.401,-0.1044 0.54132,-0.002 0.52892,0.04 0.51572,0.1156 0.3588,0.1816 0.1644,0.252 0.0792,0.39 0.3248,-0.3996 0.471,-0.3152 0.2952,-0.1504 0.54128,-0.0896 0.47648,-0.008 0.499,0.0936 v 0.47248 l -0.97324,0.028 -0.59372,0.2432 -0.432,0.268 -0.3516,0.262 -0.2904,0.5916 -0.3416,-0.60616 -0.244,-0.206 -0.482,-0.276 -1.48856,-0.3068 z"
         style="fill:#008000;fill-opacity:1;stroke:none;stroke-width:2.05500007;stroke-miterlimit:4;stroke-dasharray:none;stroke-opacity:1" />
      <path
         style="fill:#008000;fill-opacity:1;stroke:none;stroke-width:2.05500007;stroke-miterlimit:4;stroke-dasharray:none;stroke-opacity:1"
         d="m -196.78285,159.28303 0.401,-0.1044 0.54132,-0.002 0.52892,0.04 0.51572,0.1156 0.3588,0.1816 0.1644,0.252 0.0792,0.39 0.3248,-0.3996 0.471,-0.3152 0.2952,-0.1504 0.54128,-0.0896 0.47648,-0.008 0.499,0.0936 v 0.47248 l -0.97324,0.028 -0.59372,0.2432 -0.432,0.268 -0.3516,0.262 -0.2904,0.5916 -0.3416,-0.60616 -0.244,-0.206 -0.482,-0.276 -1.48856,-0.3068 z"
         id="path1228"
         inkscape:connector-curvature="0"
         sodipodi:nodetypes="ccccccccccccccccccccccccc" />
    </g>
    <ellipse
       inkscape:export-ydpi="96"
       inkscape:export-xdpi="96"
       inkscape:export-filename="D:\Desktop\Graficos\Project L\cursor.png"
       ry="1.8827016"
       rx="1.8827018"
       cy="137.31522"
       cx="-139.26469"
       id="ellipse925"
       style="fill:none;fill-opacity:1;stroke:#ffffff;stroke-width:0.46792999;stroke-miterlimit:4;stroke-dasharray:none;stroke-opacity:1" />
    <rect
       style="fill:#ff9955;fill-opacity:1;stroke:none;stroke-width:1.89386356;stroke-miterlimit:4;stroke-dasharray:none;stroke-opacity:1"
       id="rect994"
       width="152.39999"
       height="152.39999"
       x="-38.301834"
       y="20.119036"
       inkscape:export-filename="D:\Desktop\Graficos\Project L\tiles.png"
       inkscape:export-xdpi="96"
       inkscape:export-ydpi="96" />
    <g
       id="g1111"
       transform="translate(80.536184,-229.81418)"
       inkscape:export-filename="D:\Desktop\Graficos\Project L\tiles.png"
       inkscape:export-xdpi="96"
       inkscape:export-ydpi="96">
      <rect
         y="249.93321"
         x="-93.438019"
         height="25.4"
         width="25.4"
         id="rect1060"
         style="fill:#006680;fill-opacity:1;stroke:none;stroke-width:0.69960248;stroke-miterlimit:4;stroke-dasharray:none;stroke-opacity:1" />
      <circle
         r="1.0583333"
         cy="272.24243"
         cx="-90.925911"
         id="path1062"
         style="fill:#000000;fill-opacity:1;stroke:none;stroke-width:1.06339049;stroke-miterlimit:4;stroke-dasharray:none;stroke-opacity:1" />
      <circle
         style="fill:#000000;fill-opacity:1;stroke:none;stroke-width:1.06339049;stroke-miterlimit:4;stroke-dasharray:none;stroke-opacity:1"
         id="circle1064"
         cx="-70.937141"
         cy="272.00302"
         r="1.0583333" />
      <circle
         r="1.0583333"
         cy="253.9892"
         cx="-72.792381"
         id="circle1066"
         style="fill:#000000;fill-opacity:1;stroke:none;stroke-width:1.06339049;stroke-miterlimit:4;stroke-dasharray:none;stroke-opacity:1" />
      <circle
         style="fill:#000000;fill-opacity:1;stroke:none;stroke-width:1.06339049;stroke-miterlimit:4;stroke-dasharray:none;stroke-opacity:1"
         id="circle1068"
         cx="-80.572441"
         cy="264.04343"
         r="1.0583333" />
      <circle
         r="1.0583333"
         cy="252.13396"
         cx="-79.255821"
         id="circle1070"
         style="fill:#000000;fill-opacity:1;stroke:none;stroke-width:1.06339049;stroke-miterlimit:4;stroke-dasharray:none;stroke-opacity:1" />
      <circle
         style="fill:#000000;fill-opacity:1;stroke:none;stroke-width:1.06339049;stroke-miterlimit:4;stroke-dasharray:none;stroke-opacity:1"
         id="circle1072"
         cx="-90.566826"
         cy="252.61273"
         r="1.0583333" />
      <circle
         r="1.0583333"
         cy="259.68188"
         cx="-73.90155"
         id="circle1074"
         style="fill:#000000;fill-opacity:1;stroke:none;stroke-width:1.06339049;stroke-miterlimit:4;stroke-dasharray:none;stroke-opacity:1" />
      <circle
         style="fill:#000000;fill-opacity:1;stroke:none;stroke-width:1.06339049;stroke-miterlimit:4;stroke-dasharray:none;stroke-opacity:1"
         id="circle1076"
         cx="-73.85923"
         cy="266.49509"
         r="1.0583333" />
      <circle
         r="1.0583333"
         cy="256.29645"
         cx="-80.41851"
         id="circle1078"
         style="fill:#000000;fill-opacity:1;stroke:none;stroke-width:1.06339049;stroke-miterlimit:4;stroke-dasharray:none;stroke-opacity:1" />
      <circle
         style="fill:#000000;fill-opacity:1;stroke:none;stroke-width:1.06339049;stroke-miterlimit:4;stroke-dasharray:none;stroke-opacity:1"
         id="circle1080"
         cx="-77.625526"
         cy="271.9964"
         r="1.0583333" />
      <circle
         r="1.0583333"
         cy="267.2991"
         cx="-88.078056"
         id="circle1082"
         style="fill:#000000;fill-opacity:1;stroke:none;stroke-width:1.06339049;stroke-miterlimit:4;stroke-dasharray:none;stroke-opacity:1" />
      <circle
         style="fill:#000000;fill-opacity:1;stroke:none;stroke-width:1.06339049;stroke-miterlimit:4;stroke-dasharray:none;stroke-opacity:1"
         id="circle1084"
         cx="-69.919746"
         cy="264.34268"
         r="1.0583333" />
      <circle
         r="1.0583333"
         cy="262.78665"
         cx="-91.344833"
         id="circle1086"
         style="fill:#000000;fill-opacity:1;stroke:none;stroke-width:1.06339049;stroke-miterlimit:4;stroke-dasharray:none;stroke-opacity:1" />
      <circle
         style="fill:#000000;fill-opacity:1;stroke:none;stroke-width:1.06339049;stroke-miterlimit:4;stroke-dasharray:none;stroke-opacity:1"
         id="circle1088"
         cx="-83.325386"
         cy="270.02811"
         r="1.0583333" />
      <circle
         r="1.0583333"
         cy="260.33295"
         cx="-85.599556"
         id="circle1090"
         style="fill:#000000;fill-opacity:1;stroke:none;stroke-width:1.06339049;stroke-miterlimit:4;stroke-dasharray:none;stroke-opacity:1" />
      <circle
         style="fill:#000000;fill-opacity:1;stroke:none;stroke-width:1.06339049;stroke-miterlimit:4;stroke-dasharray:none;stroke-opacity:1"
         id="circle1092"
         cx="-90.207748"
         cy="257.34061"
         r="1.0583333" />
    </g>
    <g
       id="g1164"
       transform="translate(-1.3990097,-22.229574)"
       inkscape:export-filename="D:\Desktop\Graficos\Project L\tiles.png"
       inkscape:export-xdpi="96"
       inkscape:export-ydpi="96">
      <rect
         y="42.34861"
         x="-36.902824"
         height="25.4"
         width="25.4"
         id="rect927"
         style="fill:#b3b3b3;fill-opacity:1;stroke:none;stroke-width:0.47913286;stroke-miterlimit:4;stroke-dasharray:none;stroke-opacity:1" />
      <rect
         y="59.006844"
         x="-36.902824"
         height="1.3229166"
         width="25.4"
         id="rect929"
         style="fill:#000000;fill-opacity:1;stroke:none;stroke-width:0.3267017;stroke-miterlimit:4;stroke-dasharray:none;stroke-opacity:1" />
      <rect
         style="fill:#000000;fill-opacity:1;stroke:none;stroke-width:0.3267017;stroke-miterlimit:4;stroke-dasharray:none;stroke-opacity:1"
         id="rect968"
         width="25.4"
         height="1.3229166"
         x="-36.902824"
         y="50.959438" />
      <rect
         transform="rotate(90)"
         y="19.584391"
         x="42.34861"
         height="1.3229166"
         width="8.7312498"
         id="rect970"
         style="fill:#000000;fill-opacity:1;stroke:none;stroke-width:0.19154586;stroke-miterlimit:4;stroke-dasharray:none;stroke-opacity:1" />
      <rect
         style="fill:#000000;fill-opacity:1;stroke:none;stroke-width:0.17359053;stroke-miterlimit:4;stroke-dasharray:none;stroke-opacity:1"
         id="rect974"
         width="7.5445428"
         height="1.2574263"
         x="52.181171"
         y="23.673643"
         transform="rotate(90)" />
      <rect
         style="fill:#000000;fill-opacity:1;stroke:none;stroke-width:0.19154586;stroke-miterlimit:4;stroke-dasharray:none;stroke-opacity:1"
         id="rect976"
         width="8.7312498"
         height="1.3229166"
         x="42.34861"
         y="28.161074"
         transform="rotate(90)" />
      <rect
         style="fill:#000000;fill-opacity:1;stroke:none;stroke-width:0.18862131;stroke-miterlimit:4;stroke-dasharray:none;stroke-opacity:1"
         id="rect978"
         width="8.4666662"
         height="1.3229166"
         x="59.281944"
         y="19.584391"
         transform="rotate(90)" />
      <rect
         transform="rotate(90)"
         y="28.161074"
         x="59.281944"
         height="1.3229166"
         width="8.4666662"
         id="rect980"
         style="fill:#000000;fill-opacity:1;stroke:none;stroke-width:0.18862131;stroke-miterlimit:4;stroke-dasharray:none;stroke-opacity:1" />
      <rect
         y="42.34861"
         x="-36.902824"
         height="1.3229166"
         width="25.4"
         id="rect1144"
         style="fill:#000000;fill-opacity:1;stroke:none;stroke-width:0.3267017;stroke-miterlimit:4;stroke-dasharray:none;stroke-opacity:1" />
      <rect
         style="fill:#000000;fill-opacity:1;stroke:none;stroke-width:0.3267017;stroke-miterlimit:4;stroke-dasharray:none;stroke-opacity:1"
         id="rect1146"
         width="25.4"
         height="1.3229166"
         x="-36.902824"
         y="66.42569" />
      <rect
         transform="rotate(90)"
         y="35.579906"
         x="42.34861"
         height="1.3229166"
         width="25.4"
         id="rect1148"
         style="fill:#000000;fill-opacity:1;stroke:none;stroke-width:0.3267017;stroke-miterlimit:4;stroke-dasharray:none;stroke-opacity:1" />
      <rect
         style="fill:#000000;fill-opacity:1;stroke:none;stroke-width:0.3267017;stroke-miterlimit:4;stroke-dasharray:none;stroke-opacity:1"
         id="rect1150"
         width="25.4"
         height="1.3229166"
         x="42.34861"
         y="11.502825"
         transform="rotate(90)" />
    </g>
    <g
       id="g1020"
       inkscape:export-filename="D:\Desktop\Graficos\Project L\tiles.png"
       inkscape:export-xdpi="96"
       inkscape:export-ydpi="96">
      <rect
         style="fill:#de8787;fill-opacity:1;stroke:none;stroke-width:0.69960248;stroke-miterlimit:4;stroke-dasharray:none;stroke-opacity:1"
         id="rect950"
         width="25.4"
         height="25.4"
         x="12.498171"
         y="20.119032" />
      <circle
         style="fill:#000000;fill-opacity:1;stroke:none;stroke-width:1.06339049;stroke-miterlimit:4;stroke-dasharray:none;stroke-opacity:1"
         id="circle952"
         cx="15.010279"
         cy="42.428253"
         r="1.0583333" />
      <circle
         r="1.0583333"
         cy="42.188843"
         cx="34.99905"
         id="circle954"
         style="fill:#000000;fill-opacity:1;stroke:none;stroke-width:1.06339049;stroke-miterlimit:4;stroke-dasharray:none;stroke-opacity:1" />
      <circle
         style="fill:#000000;fill-opacity:1;stroke:none;stroke-width:1.06339049;stroke-miterlimit:4;stroke-dasharray:none;stroke-opacity:1"
         id="circle956"
         cx="33.14381"
         cy="24.175016"
         r="1.0583333" />
      <circle
         r="1.0583333"
         cy="34.229248"
         cx="25.363749"
         id="circle958"
         style="fill:#000000;fill-opacity:1;stroke:none;stroke-width:1.06339049;stroke-miterlimit:4;stroke-dasharray:none;stroke-opacity:1" />
      <circle
         style="fill:#000000;fill-opacity:1;stroke:none;stroke-width:1.06339049;stroke-miterlimit:4;stroke-dasharray:none;stroke-opacity:1"
         id="circle960"
         cx="26.680368"
         cy="22.319777"
         r="1.0583333" />
      <circle
         r="1.0583333"
         cy="22.798552"
         cx="15.369364"
         id="circle962"
         style="fill:#000000;fill-opacity:1;stroke:none;stroke-width:1.06339049;stroke-miterlimit:4;stroke-dasharray:none;stroke-opacity:1" />
      <circle
         style="fill:#000000;fill-opacity:1;stroke:none;stroke-width:1.06339049;stroke-miterlimit:4;stroke-dasharray:none;stroke-opacity:1"
         id="circle964"
         cx="32.034641"
         cy="29.867704"
         r="1.0583333" />
      <circle
         r="1.0583333"
         cy="36.680908"
         cx="32.076962"
         id="circle966"
         style="fill:#000000;fill-opacity:1;stroke:none;stroke-width:1.06339049;stroke-miterlimit:4;stroke-dasharray:none;stroke-opacity:1" />
      <circle
         style="fill:#000000;fill-opacity:1;stroke:none;stroke-width:1.06339049;stroke-miterlimit:4;stroke-dasharray:none;stroke-opacity:1"
         id="circle968"
         cx="25.517679"
         cy="26.482267"
         r="1.0583333" />
      <circle
         r="1.0583333"
         cy="42.18222"
         cx="28.310663"
         id="circle970"
         style="fill:#000000;fill-opacity:1;stroke:none;stroke-width:1.06339049;stroke-miterlimit:4;stroke-dasharray:none;stroke-opacity:1" />
      <circle
         style="fill:#000000;fill-opacity:1;stroke:none;stroke-width:1.06339049;stroke-miterlimit:4;stroke-dasharray:none;stroke-opacity:1"
         id="circle972"
         cx="17.858133"
         cy="37.484924"
         r="1.0583333" />
      <circle
         r="1.0583333"
         cy="34.528503"
         cx="36.016445"
         id="circle974"
         style="fill:#000000;fill-opacity:1;stroke:none;stroke-width:1.06339049;stroke-miterlimit:4;stroke-dasharray:none;stroke-opacity:1" />
      <circle
         style="fill:#000000;fill-opacity:1;stroke:none;stroke-width:1.06339049;stroke-miterlimit:4;stroke-dasharray:none;stroke-opacity:1"
         id="circle976"
         cx="14.591356"
         cy="32.972473"
         r="1.0583333" />
      <circle
         r="1.0583333"
         cy="40.213928"
         cx="22.610804"
         id="circle978"
         style="fill:#000000;fill-opacity:1;stroke:none;stroke-width:1.06339049;stroke-miterlimit:4;stroke-dasharray:none;stroke-opacity:1" />
      <circle
         style="fill:#000000;fill-opacity:1;stroke:none;stroke-width:1.06339049;stroke-miterlimit:4;stroke-dasharray:none;stroke-opacity:1"
         id="circle980"
         cx="20.336634"
         cy="30.518766"
         r="1.0583333" />
      <circle
         r="1.0583333"
         cy="27.526426"
         cx="15.728441"
         id="circle982"
         style="fill:#000000;fill-opacity:1;stroke:none;stroke-width:1.06339049;stroke-miterlimit:4;stroke-dasharray:none;stroke-opacity:1" />
    </g>
  </g>
</svg>
