<?xml version="1.0" encoding="UTF-8" standalone="no"?>
<!-- Created with Inkscape (http://www.inkscape.org/) -->

<svg
   xmlns:dc="http://purl.org/dc/elements/1.1/"
   xmlns:cc="http://creativecommons.org/ns#"
   xmlns:rdf="http://www.w3.org/1999/02/22-rdf-syntax-ns#"
   xmlns:svg="http://www.w3.org/2000/svg"
   xmlns="http://www.w3.org/2000/svg"
   xmlns:sodipodi="http://sodipodi.sourceforge.net/DTD/sodipodi-0.dtd"
   xmlns:inkscape="http://www.inkscape.org/namespaces/inkscape"
   width="210mm"
   height="297mm"
   viewBox="0 0 210 297"
   version="1.1"
   id="svg8"
   inkscape:version="0.92.4 (5da689c313, 2019-01-14)"
   sodipodi:docname="Recursos.svg">
  <defs
     id="defs2" />
  <sodipodi:namedview
     id="base"
     pagecolor="#ffffff"
     bordercolor="#666666"
     borderopacity="1.0"
     inkscape:pageopacity="0.0"
     inkscape:pageshadow="2"
     inkscape:zoom="4.4210243"
     inkscape:cx="-789.2243"
     inkscape:cy="544.81722"
     inkscape:document-units="mm"
     inkscape:current-layer="layer1"
     showgrid="false"
     inkscape:window-width="1280"
     inkscape:window-height="738"
     inkscape:window-x="-8"
     inkscape:window-y="-8"
     inkscape:window-maximized="1" />
  <metadata
     id="metadata5">
    <rdf:RDF>
      <cc:Work
         rdf:about="">
        <dc:format>image/svg+xml</dc:format>
        <dc:type
           rdf:resource="http://purl.org/dc/dcmitype/StillImage" />
        <dc:title></dc:title>
      </cc:Work>
    </rdf:RDF>
  </metadata>
  <g
     inkscape:label="Capa 1"
     inkscape:groupmode="layer"
     id="layer1">
    <g
       id="g844"
       inkscape:export-filename="D:\Desktop\Graficos\Project L\cube.png"
       inkscape:export-xdpi="96"
       inkscape:export-ydpi="96">
      <rect
         y="117.5369"
         x="-207.13094"
         height="16.933332"
         width="16.933332"
         id="rect817"
         style="fill:#000000;fill-opacity:1;stroke:none;stroke-width:0.04992137;stroke-miterlimit:4;stroke-dasharray:none;stroke-opacity:1" />
      <g
         transform="translate(2.7609483)"
         id="g825">
        <rect
           style="fill:#ffffff;fill-opacity:1;stroke:none;stroke-width:0.22461316;stroke-miterlimit:4;stroke-dasharray:none;stroke-opacity:1"
           id="rect819"
           width="2.1166666"
           height="2.1166666"
           x="-205.12935"
           y="120.51146" />
        <rect
           y="120.51146"
           x="-199.83775"
           height="2.1166666"
           width="2.1166666"
           id="rect821"
           style="fill:#ffffff;fill-opacity:1;stroke:none;stroke-width:0.22461316;stroke-miterlimit:4;stroke-dasharray:none;stroke-opacity:1" />
      </g>
      <rect
         y="128.37442"
         x="-201.83926"
         height="2.1166666"
         width="6.3499999"
         id="rect827"
         style="fill:#ffffff;fill-opacity:1;stroke:none;stroke-width:0.3393524;stroke-miterlimit:4;stroke-dasharray:none;stroke-opacity:1" />
    </g>
    <rect
       y="118.73962"
       x="-165.30325"
       height="16.933332"
       width="16.933332"
       id="rect829"
       style="fill:#0000ff;fill-opacity:1;stroke:none;stroke-width:0.04992137;stroke-miterlimit:4;stroke-dasharray:none;stroke-opacity:1" />
    <rect
       y="121.71417"
       x="-160.54073"
       height="2.1166666"
       width="2.1166666"
       id="rect831"
       style="fill:#ffffff;fill-opacity:1;stroke:none;stroke-width:0.22461316;stroke-miterlimit:4;stroke-dasharray:none;stroke-opacity:1"
       ry="1.0583333" />
    <rect
       style="fill:#ffffff;fill-opacity:1;stroke:none;stroke-width:0.22461316;stroke-miterlimit:4;stroke-dasharray:none;stroke-opacity:1"
       id="rect833"
       width="2.1166666"
       height="2.1166666"
       x="-155.24913"
       y="121.71417"
       ry="1.0583333" />
    <path
       style="fill:#ffffff;fill-opacity:1;stroke:none;stroke-width:0.3393524;stroke-miterlimit:4;stroke-dasharray:none;stroke-opacity:1"
       d="m -160.01158,129.57713 h 2.99073 1.73725 1.62202 v 2.11667 h -1.22111 -1.93771 -3.19118 z"
       id="rect837"
       inkscape:connector-curvature="0"
       sodipodi:nodetypes="ccccccccc" />
    <rect
       ry="0.52916664"
       style="fill:#000000;fill-opacity:1;stroke:none;stroke-width:0.11230658;stroke-miterlimit:4;stroke-dasharray:none;stroke-opacity:1"
       id="rect857"
       width="1.0583333"
       height="1.0583333"
       x="-160.01157"
       y="122.24334" />
    <rect
       y="122.24334"
       x="-154.71997"
       height="1.0583333"
       width="1.0583333"
       id="rect859"
       style="fill:#000000;fill-opacity:1;stroke:none;stroke-width:0.11230658;stroke-miterlimit:4;stroke-dasharray:none;stroke-opacity:1"
       ry="0.52916664" />
    <ellipse
       style="fill:none;fill-opacity:1;stroke:#000000;stroke-width:0.46792999;stroke-miterlimit:4;stroke-dasharray:none;stroke-opacity:1"
       id="path884"
       cx="-139.26469"
       cy="129.90698"
       rx="1.8827018"
       ry="1.8827016"
       inkscape:export-filename="D:\Desktop\Graficos\Project L\shoot.png"
       inkscape:export-xdpi="96"
       inkscape:export-ydpi="96" />
    <g
       id="g1090"
       inkscape:export-filename="D:\Desktop\Graficos\Project L\grass.png"
       inkscape:export-xdpi="96"
       inkscape:export-ydpi="96">
      <rect
         ry="0"
         y="146.93968"
         x="-201.99727"
         height="25.4"
         width="25.4"
         id="rect886"
         style="fill:#00ff00;fill-opacity:1;stroke:none;stroke-width:1.03127825;stroke-miterlimit:4;stroke-dasharray:none;stroke-opacity:1" />
      <path
         style="fill:#008000;fill-opacity:1;stroke:none;stroke-width:0.51375002;stroke-miterlimit:4;stroke-dasharray:none;stroke-opacity:1"
         d="m -199.4302,156.34631 0.10025,-0.0261 0.13533,-4e-4 0.13224,0.01 0.12892,0.0289 0.0897,0.0454 0.0411,0.063 0.0198,0.0975 0.0812,-0.0999 0.11775,-0.0787 0.0737,-0.0376 0.13531,-0.0224 0.11912,-0.002 0.12475,0.0234 v 0.11812 l -0.24331,0.007 -0.14842,0.0607 -0.108,0.067 -0.0879,0.0655 -0.0726,0.1479 -0.0854,-0.15154 -0.061,-0.0515 -0.1205,-0.069 -0.37214,-0.0768 z"
         id="rect888"
         inkscape:connector-curvature="0"
         sodipodi:nodetypes="ccccccccccccccccccccccccc" />
      <path
         sodipodi:nodetypes="ccccccccccccccccccccccccc"
         inkscape:connector-curvature="0"
         id="path835"
         d="m -199.43019,151.32106 0.10025,-0.0261 0.13533,-4e-4 0.13224,0.01 0.12892,0.0289 0.0897,0.0454 0.0411,0.063 0.0197,0.0975 0.0813,-0.0999 0.11775,-0.0787 0.0737,-0.0376 0.13531,-0.0224 0.11913,-0.002 0.12475,0.0234 v 0.11812 l -0.24332,0.007 -0.14842,0.0607 -0.108,0.067 -0.0879,0.0655 -0.0726,0.1479 -0.0854,-0.15154 -0.061,-0.0515 -0.1205,-0.069 -0.37213,-0.0768 z"
         style="fill:#008000;fill-opacity:1;stroke:none;stroke-width:0.51375002;stroke-miterlimit:4;stroke-dasharray:none;stroke-opacity:1" />
      <path
         style="fill:#008000;fill-opacity:1;stroke:none;stroke-width:0.51375002;stroke-miterlimit:4;stroke-dasharray:none;stroke-opacity:1"
         d="m -190.64922,156.29341 0.10025,-0.0261 0.13532,-4e-4 0.13224,0.01 0.12892,0.0289 0.0898,0.0454 0.0411,0.063 0.0198,0.0975 0.0812,-0.0999 0.11775,-0.0787 0.0738,-0.0376 0.13531,-0.0224 0.11913,-0.002 0.12475,0.0234 v 0.11812 l -0.24332,0.008 -0.14842,0.0607 -0.108,0.067 -0.0879,0.0655 -0.0726,0.1479 -0.0854,-0.15154 -0.061,-0.0515 -0.12049,-0.069 -0.37214,-0.0768 z"
         id="path837"
         inkscape:connector-curvature="0"
         sodipodi:nodetypes="ccccccccccccccccccccccccc" />
      <path
         sodipodi:nodetypes="ccccccccccccccccccccccccc"
         inkscape:connector-curvature="0"
         id="path839"
         d="m -194.56364,153.35761 0.10025,-0.0261 0.13533,-4e-4 0.13224,0.01 0.12892,0.0289 0.0898,0.0454 0.0411,0.063 0.0198,0.0975 0.0812,-0.0999 0.11775,-0.0787 0.0738,-0.0376 0.13531,-0.0224 0.11913,-0.002 0.12474,0.0234 v 0.11812 l -0.24331,0.008 -0.14842,0.0607 -0.108,0.067 -0.0879,0.0655 -0.0726,0.1479 -0.0854,-0.15154 -0.061,-0.0515 -0.1205,-0.069 -0.37213,-0.0768 z"
         style="fill:#008000;fill-opacity:1;stroke:none;stroke-width:0.51375002;stroke-miterlimit:4;stroke-dasharray:none;stroke-opacity:1" />
      <path
         style="fill:#008000;fill-opacity:1;stroke:none;stroke-width:0.51375002;stroke-miterlimit:4;stroke-dasharray:none;stroke-opacity:1"
         d="m -199.536,159.14987 0.10025,-0.0261 0.13533,-4e-4 0.13223,0.01 0.12893,0.0289 0.0898,0.0454 0.0411,0.063 0.0197,0.0975 0.0813,-0.0999 0.11775,-0.0787 0.0737,-0.0376 0.13531,-0.0224 0.11912,-0.002 0.12475,0.0234 v 0.11812 l -0.24331,0.008 -0.14842,0.0607 -0.108,0.067 -0.0879,0.0655 -0.0726,0.1479 -0.0854,-0.15153 -0.061,-0.0515 -0.1205,-0.069 -0.37214,-0.0768 z"
         id="path841"
         inkscape:connector-curvature="0"
         sodipodi:nodetypes="ccccccccccccccccccccccccc" />
      <path
         sodipodi:nodetypes="ccccccccccccccccccccccccc"
         inkscape:connector-curvature="0"
         id="path843"
         d="m -191.65427,158.51511 0.10025,-0.0261 0.13532,-4e-4 0.13224,0.01 0.12892,0.0289 0.0898,0.0454 0.0411,0.063 0.0197,0.0975 0.0813,-0.0999 0.11775,-0.0787 0.0737,-0.0376 0.13531,-0.0224 0.11913,-0.002 0.12475,0.0234 v 0.11812 l -0.24331,0.008 -0.14843,0.0607 -0.108,0.067 -0.0879,0.0655 -0.0726,0.1479 -0.0854,-0.15154 -0.061,-0.0515 -0.1205,-0.069 -0.37214,-0.0768 z"
         style="fill:#008000;fill-opacity:1;stroke:none;stroke-width:0.51375002;stroke-miterlimit:4;stroke-dasharray:none;stroke-opacity:1" />
      <path
         style="fill:#008000;fill-opacity:1;stroke:none;stroke-width:0.51375002;stroke-miterlimit:4;stroke-dasharray:none;stroke-opacity:1"
         d="m -191.81297,154.62715 0.10025,-0.0261 0.13532,-4e-4 0.13224,0.01 0.12893,0.0289 0.0897,0.0454 0.0411,0.063 0.0197,0.0975 0.0813,-0.0999 0.11775,-0.0788 0.0737,-0.0376 0.13531,-0.0224 0.11913,-0.002 0.12475,0.0234 v 0.11813 l -0.24331,0.007 -0.14843,0.0608 -0.108,0.067 -0.0879,0.0655 -0.0726,0.1479 -0.0854,-0.15154 -0.061,-0.0515 -0.1205,-0.069 -0.37214,-0.0768 z"
         id="path845"
         inkscape:connector-curvature="0"
         sodipodi:nodetypes="ccccccccccccccccccccccccc" />
      <path
         sodipodi:nodetypes="ccccccccccccccccccccccccc"
         inkscape:connector-curvature="0"
         id="path847"
         d="m -196.15056,157.43071 0.10025,-0.0261 0.13533,-4e-4 0.13223,0.01 0.12893,0.0289 0.0897,0.0454 0.0411,0.063 0.0198,0.0975 0.0812,-0.0999 0.11775,-0.0788 0.0738,-0.0376 0.13532,-0.0224 0.11912,-0.002 0.12475,0.0234 v 0.11812 l -0.24331,0.007 -0.14843,0.0608 -0.108,0.067 -0.0879,0.0655 -0.0726,0.1479 -0.0854,-0.15154 -0.061,-0.0515 -0.1205,-0.069 -0.37214,-0.0767 z"
         style="fill:#008000;fill-opacity:1;stroke:none;stroke-width:0.51375002;stroke-miterlimit:4;stroke-dasharray:none;stroke-opacity:1" />
      <path
         style="fill:#008000;fill-opacity:1;stroke:none;stroke-width:0.51375002;stroke-miterlimit:4;stroke-dasharray:none;stroke-opacity:1"
         d="m -198.02841,153.78079 0.10025,-0.0261 0.13532,-4e-4 0.13224,0.01 0.12893,0.0289 0.0897,0.0454 0.0411,0.063 0.0197,0.0975 0.0813,-0.0999 0.11775,-0.0787 0.0737,-0.0376 0.13532,-0.0224 0.11912,-0.002 0.12475,0.0234 v 0.11813 l -0.24331,0.008 -0.14843,0.0607 -0.108,0.067 -0.0879,0.0655 -0.0726,0.1479 -0.0854,-0.15154 -0.061,-0.0515 -0.1205,-0.069 -0.37214,-0.0768 z"
         id="path849"
         inkscape:connector-curvature="0"
         sodipodi:nodetypes="ccccccccccccccccccccccccc" />
      <path
         style="fill:#008000;fill-opacity:1;stroke:none;stroke-width:0.51375002;stroke-miterlimit:4;stroke-dasharray:none;stroke-opacity:1"
         d="m -192.95026,148.91422 0.10025,-0.0261 0.13532,-4e-4 0.13224,0.01 0.12893,0.0289 0.0897,0.0454 0.0411,0.063 0.0198,0.0975 0.0812,-0.0999 0.11775,-0.0788 0.0738,-0.0376 0.13532,-0.0224 0.11912,-0.002 0.12475,0.0234 v 0.11812 l -0.24331,0.007 -0.14843,0.0608 -0.108,0.067 -0.0879,0.0655 -0.0726,0.1479 -0.0854,-0.15153 -0.061,-0.0515 -0.1205,-0.069 -0.37214,-0.0767 z"
         id="path860"
         inkscape:connector-curvature="0"
         sodipodi:nodetypes="ccccccccccccccccccccccccc" />
      <path
         sodipodi:nodetypes="ccccccccccccccccccccccccc"
         inkscape:connector-curvature="0"
         id="path862"
         d="m -191.25754,151.21526 0.10025,-0.0261 0.13533,-4e-4 0.13224,0.01 0.12892,0.0289 0.0897,0.0454 0.0411,0.063 0.0197,0.0975 0.0813,-0.0999 0.11775,-0.0788 0.0737,-0.0376 0.13531,-0.0224 0.11913,-0.002 0.12474,0.0234 v 0.11812 l -0.24331,0.007 -0.14842,0.0608 -0.108,0.067 -0.0879,0.0655 -0.0726,0.1479 -0.0854,-0.15154 -0.061,-0.0515 -0.1205,-0.069 -0.37213,-0.0768 z"
         style="fill:#008000;fill-opacity:1;stroke:none;stroke-width:0.51375002;stroke-miterlimit:4;stroke-dasharray:none;stroke-opacity:1" />
      <path
         style="fill:#008000;fill-opacity:1;stroke:none;stroke-width:0.51375002;stroke-miterlimit:4;stroke-dasharray:none;stroke-opacity:1"
         d="m -196.44148,149.78704 0.10025,-0.0261 0.13532,-4e-4 0.13224,0.01 0.12892,0.0289 0.0898,0.0454 0.0411,0.063 0.0198,0.0975 0.0812,-0.0999 0.11775,-0.0787 0.0738,-0.0376 0.13531,-0.0224 0.11913,-0.002 0.12475,0.0234 v 0.11813 l -0.24332,0.008 -0.14842,0.0607 -0.108,0.067 -0.0879,0.0655 -0.0726,0.1479 -0.0854,-0.15154 -0.061,-0.0515 -0.1205,-0.069 -0.37213,-0.0768 z"
         id="path864"
         inkscape:connector-curvature="0"
         sodipodi:nodetypes="ccccccccccccccccccccccccc" />
      <path
         style="fill:#008000;fill-opacity:1;stroke:none;stroke-width:0.51375002;stroke-miterlimit:4;stroke-dasharray:none;stroke-opacity:1"
         d="m -189.74996,152.61705 0.10025,-0.0261 0.13532,-4e-4 0.13224,0.01 0.12893,0.0289 0.0898,0.0454 0.0411,0.063 0.0198,0.0975 0.0812,-0.0999 0.11775,-0.0788 0.0738,-0.0376 0.13532,-0.0224 0.11912,-0.002 0.12475,0.0234 v 0.11813 l -0.24331,0.007 -0.14843,0.0608 -0.108,0.067 -0.0879,0.0655 -0.0726,0.1479 -0.0854,-0.15154 -0.061,-0.0515 -0.1205,-0.069 -0.37214,-0.0768 z"
         id="path866"
         inkscape:connector-curvature="0"
         sodipodi:nodetypes="ccccccccccccccccccccccccc" />
      <path
         sodipodi:nodetypes="ccccccccccccccccccccccccc"
         inkscape:connector-curvature="0"
         id="path868"
         d="m -200.01206,153.35761 0.10025,-0.0261 0.13533,-4e-4 0.13223,0.01 0.12893,0.0289 0.0898,0.0454 0.0411,0.063 0.0198,0.0975 0.0812,-0.0999 0.11775,-0.0787 0.0738,-0.0376 0.13532,-0.0224 0.11912,-0.002 0.12475,0.0234 v 0.11812 l -0.24331,0.008 -0.14843,0.0607 -0.108,0.067 -0.0879,0.0655 -0.0726,0.1479 -0.0854,-0.15154 -0.061,-0.0515 -0.1205,-0.069 -0.37214,-0.0768 z"
         style="fill:#008000;fill-opacity:1;stroke:none;stroke-width:0.51375002;stroke-miterlimit:4;stroke-dasharray:none;stroke-opacity:1" />
      <path
         style="fill:#008000;fill-opacity:1;stroke:none;stroke-width:0.51375002;stroke-miterlimit:4;stroke-dasharray:none;stroke-opacity:1"
         d="m -199.74757,149.4432 0.10025,-0.0261 0.13532,-4e-4 0.13224,0.01 0.12893,0.0289 0.0898,0.0454 0.0411,0.063 0.0197,0.0975 0.0813,-0.0999 0.11775,-0.0787 0.0737,-0.0376 0.13531,-0.0224 0.11913,-0.002 0.12475,0.0234 v 0.11813 l -0.24331,0.008 -0.14843,0.0607 -0.108,0.067 -0.0879,0.0655 -0.0726,0.1479 -0.0854,-0.15154 -0.061,-0.0515 -0.1205,-0.069 -0.37214,-0.0768 z"
         id="path870"
         inkscape:connector-curvature="0"
         sodipodi:nodetypes="ccccccccccccccccccccccccc" />
      <path
         style="fill:#008000;fill-opacity:1;stroke:none;stroke-width:0.51375002;stroke-miterlimit:4;stroke-dasharray:none;stroke-opacity:1"
         d="m -189.80286,159.44081 0.10025,-0.0261 0.13532,-4e-4 0.13224,0.01 0.12893,0.0289 0.0897,0.0454 0.0411,0.063 0.0198,0.0975 0.0812,-0.0999 0.11775,-0.0788 0.0737,-0.0376 0.13532,-0.0224 0.11912,-0.003 0.12475,0.0234 v 0.11812 l -0.24331,0.007 -0.14843,0.0608 -0.108,0.067 -0.0879,0.0655 -0.0726,0.1479 -0.0854,-0.15154 -0.061,-0.0515 -0.1205,-0.069 -0.37214,-0.0768 z"
         id="path872"
         inkscape:connector-curvature="0"
         sodipodi:nodetypes="ccccccccccccccccccccccccc" />
      <path
         sodipodi:nodetypes="ccccccccccccccccccccccccc"
         inkscape:connector-curvature="0"
         id="path874"
         d="m -196.0712,159.52016 0.10025,-0.0261 0.13533,-4e-4 0.13224,0.01 0.12892,0.0289 0.0898,0.0454 0.0411,0.063 0.0197,0.0975 0.0813,-0.0999 0.11775,-0.0788 0.0737,-0.0376 0.13531,-0.0224 0.11912,-0.002 0.12475,0.0234 v 0.11812 l -0.24331,0.007 -0.14842,0.0608 -0.108,0.067 -0.0879,0.0655 -0.0726,0.1479 -0.0854,-0.15154 -0.061,-0.0515 -0.1205,-0.069 -0.37214,-0.0767 z"
         style="fill:#008000;fill-opacity:1;stroke:none;stroke-width:0.51375002;stroke-miterlimit:4;stroke-dasharray:none;stroke-opacity:1" />
      <path
         style="fill:#008000;fill-opacity:1;stroke:none;stroke-width:0.51375002;stroke-miterlimit:4;stroke-dasharray:none;stroke-opacity:1"
         d="m -195.1984,155.36771 0.10025,-0.0261 0.13533,-4e-4 0.13224,0.01 0.12892,0.0289 0.0898,0.0454 0.0411,0.063 0.0198,0.0975 0.0812,-0.0999 0.11775,-0.0787 0.0738,-0.0376 0.13531,-0.0224 0.11912,-0.002 0.12475,0.0234 v 0.11812 l -0.24331,0.007 -0.14842,0.0607 -0.108,0.067 -0.0879,0.0655 -0.0726,0.1479 -0.0854,-0.15154 -0.061,-0.0515 -0.1205,-0.069 -0.37214,-0.0768 z"
         id="path876"
         inkscape:connector-curvature="0"
         sodipodi:nodetypes="ccccccccccccccccccccccccc" />
      <path
         sodipodi:nodetypes="ccccccccccccccccccccccccc"
         inkscape:connector-curvature="0"
         id="path918"
         d="m -198.11357,167.59747 0.10025,-0.0261 0.13533,-4e-4 0.13224,0.01 0.12892,0.0289 0.0897,0.0454 0.0411,0.063 0.0198,0.0975 0.0812,-0.0999 0.11775,-0.0787 0.0737,-0.0376 0.13531,-0.0224 0.11912,-0.002 0.12475,0.0234 v 0.11812 l -0.24331,0.007 -0.14842,0.0607 -0.108,0.067 -0.0879,0.0655 -0.0726,0.1479 -0.0854,-0.15154 -0.061,-0.0515 -0.1205,-0.069 -0.37214,-0.0768 z"
         style="fill:#008000;fill-opacity:1;stroke:none;stroke-width:0.51375002;stroke-miterlimit:4;stroke-dasharray:none;stroke-opacity:1" />
      <path
         style="fill:#008000;fill-opacity:1;stroke:none;stroke-width:0.51375002;stroke-miterlimit:4;stroke-dasharray:none;stroke-opacity:1"
         d="m -198.11356,162.57222 0.10025,-0.0261 0.13533,-4e-4 0.13224,0.01 0.12892,0.0289 0.0897,0.0454 0.0411,0.063 0.0197,0.0975 0.0813,-0.0999 0.11775,-0.0787 0.0737,-0.0376 0.13531,-0.0224 0.11913,-0.002 0.12475,0.0234 v 0.11812 l -0.24332,0.007 -0.14842,0.0607 -0.108,0.067 -0.0879,0.0655 -0.0726,0.1479 -0.0854,-0.15154 -0.061,-0.0515 -0.1205,-0.069 -0.37213,-0.0768 z"
         id="path920"
         inkscape:connector-curvature="0"
         sodipodi:nodetypes="ccccccccccccccccccccccccc" />
      <path
         sodipodi:nodetypes="ccccccccccccccccccccccccc"
         inkscape:connector-curvature="0"
         id="path922"
         d="m -189.33259,167.54457 0.10025,-0.0261 0.13532,-4e-4 0.13224,0.01 0.12892,0.0289 0.0898,0.0454 0.0411,0.063 0.0198,0.0975 0.0812,-0.0999 0.11775,-0.0787 0.0738,-0.0376 0.13531,-0.0224 0.11913,-0.002 0.12475,0.0234 v 0.11812 l -0.24332,0.008 -0.14842,0.0607 -0.108,0.067 -0.0879,0.0655 -0.0726,0.1479 -0.0854,-0.15154 -0.061,-0.0515 -0.12049,-0.069 -0.37214,-0.0768 z"
         style="fill:#008000;fill-opacity:1;stroke:none;stroke-width:0.51375002;stroke-miterlimit:4;stroke-dasharray:none;stroke-opacity:1" />
      <path
         style="fill:#008000;fill-opacity:1;stroke:none;stroke-width:0.51375002;stroke-miterlimit:4;stroke-dasharray:none;stroke-opacity:1"
         d="m -193.24701,164.60877 0.10025,-0.0261 0.13533,-4e-4 0.13224,0.01 0.12892,0.0289 0.0898,0.0454 0.0411,0.063 0.0198,0.0975 0.0812,-0.0999 0.11775,-0.0787 0.0738,-0.0376 0.13531,-0.0224 0.11913,-0.002 0.12474,0.0234 v 0.11812 l -0.24331,0.008 -0.14842,0.0607 -0.108,0.067 -0.0879,0.0655 -0.0726,0.1479 -0.0854,-0.15154 -0.061,-0.0515 -0.1205,-0.069 -0.37213,-0.0768 z"
         id="path924"
         inkscape:connector-curvature="0"
         sodipodi:nodetypes="ccccccccccccccccccccccccc" />
      <path
         sodipodi:nodetypes="ccccccccccccccccccccccccc"
         inkscape:connector-curvature="0"
         id="path926"
         d="m -198.21937,170.40103 0.10025,-0.0261 0.13533,-4e-4 0.13223,0.01 0.12893,0.0289 0.0898,0.0454 0.0411,0.063 0.0197,0.0975 0.0813,-0.0999 0.11775,-0.0787 0.0737,-0.0376 0.13531,-0.0224 0.11912,-0.002 0.12475,0.0234 v 0.11812 l -0.24331,0.008 -0.14842,0.0607 -0.108,0.067 -0.0879,0.0655 -0.0726,0.1479 -0.0854,-0.15153 -0.061,-0.0515 -0.1205,-0.069 -0.37214,-0.0768 z"
         style="fill:#008000;fill-opacity:1;stroke:none;stroke-width:0.51375002;stroke-miterlimit:4;stroke-dasharray:none;stroke-opacity:1" />
      <path
         style="fill:#008000;fill-opacity:1;stroke:none;stroke-width:0.51375002;stroke-miterlimit:4;stroke-dasharray:none;stroke-opacity:1"
         d="m -190.33764,169.76627 0.10025,-0.0261 0.13532,-4e-4 0.13224,0.01 0.12892,0.0289 0.0898,0.0454 0.0411,0.063 0.0197,0.0975 0.0813,-0.0999 0.11775,-0.0787 0.0737,-0.0376 0.13531,-0.0224 0.11913,-0.002 0.12475,0.0234 v 0.11812 l -0.24331,0.008 -0.14843,0.0607 -0.108,0.067 -0.0879,0.0655 -0.0726,0.1479 -0.0854,-0.15154 -0.061,-0.0515 -0.1205,-0.069 -0.37214,-0.0768 z"
         id="path928"
         inkscape:connector-curvature="0"
         sodipodi:nodetypes="ccccccccccccccccccccccccc" />
      <path
         sodipodi:nodetypes="ccccccccccccccccccccccccc"
         inkscape:connector-curvature="0"
         id="path930"
         d="m -190.49634,165.87831 0.10025,-0.0261 0.13532,-4e-4 0.13224,0.01 0.12893,0.0289 0.0897,0.0454 0.0411,0.063 0.0197,0.0975 0.0813,-0.0999 0.11775,-0.0788 0.0737,-0.0376 0.13531,-0.0224 0.11913,-0.002 0.12475,0.0234 v 0.11813 l -0.24331,0.007 -0.14843,0.0608 -0.108,0.067 -0.0879,0.0655 -0.0726,0.1479 -0.0854,-0.15154 -0.061,-0.0515 -0.1205,-0.069 -0.37214,-0.0768 z"
         style="fill:#008000;fill-opacity:1;stroke:none;stroke-width:0.51375002;stroke-miterlimit:4;stroke-dasharray:none;stroke-opacity:1" />
      <path
         style="fill:#008000;fill-opacity:1;stroke:none;stroke-width:0.51375002;stroke-miterlimit:4;stroke-dasharray:none;stroke-opacity:1"
         d="m -194.83393,168.68187 0.10025,-0.0261 0.13533,-4e-4 0.13223,0.01 0.12893,0.0289 0.0897,0.0454 0.0411,0.063 0.0198,0.0975 0.0812,-0.0999 0.11775,-0.0788 0.0738,-0.0376 0.13532,-0.0224 0.11912,-0.002 0.12475,0.0234 v 0.11812 l -0.24331,0.007 -0.14843,0.0608 -0.108,0.067 -0.0879,0.0655 -0.0726,0.1479 -0.0854,-0.15154 -0.061,-0.0515 -0.1205,-0.069 -0.37214,-0.0767 z"
         id="path932"
         inkscape:connector-curvature="0"
         sodipodi:nodetypes="ccccccccccccccccccccccccc" />
      <path
         sodipodi:nodetypes="ccccccccccccccccccccccccc"
         inkscape:connector-curvature="0"
         id="path934"
         d="m -196.71178,165.03195 0.10025,-0.0261 0.13532,-4e-4 0.13224,0.01 0.12893,0.0289 0.0897,0.0454 0.0411,0.063 0.0197,0.0975 0.0813,-0.0999 0.11775,-0.0787 0.0737,-0.0376 0.13532,-0.0224 0.11912,-0.002 0.12475,0.0234 v 0.11813 l -0.24331,0.008 -0.14843,0.0607 -0.108,0.067 -0.0879,0.0655 -0.0726,0.1479 -0.0854,-0.15154 -0.061,-0.0515 -0.1205,-0.069 -0.37214,-0.0768 z"
         style="fill:#008000;fill-opacity:1;stroke:none;stroke-width:0.51375002;stroke-miterlimit:4;stroke-dasharray:none;stroke-opacity:1" />
      <path
         sodipodi:nodetypes="ccccccccccccccccccccccccc"
         inkscape:connector-curvature="0"
         id="path936"
         d="m -191.63363,160.16538 0.10025,-0.0261 0.13532,-4e-4 0.13224,0.01 0.12893,0.0289 0.0897,0.0454 0.0411,0.063 0.0198,0.0975 0.0812,-0.0999 0.11775,-0.0788 0.0738,-0.0376 0.13532,-0.0224 0.11912,-0.002 0.12475,0.0234 v 0.11812 l -0.24331,0.007 -0.14843,0.0608 -0.108,0.067 -0.0879,0.0655 -0.0726,0.1479 -0.0854,-0.15153 -0.061,-0.0515 -0.1205,-0.069 -0.37214,-0.0767 z"
         style="fill:#008000;fill-opacity:1;stroke:none;stroke-width:0.51375002;stroke-miterlimit:4;stroke-dasharray:none;stroke-opacity:1" />
      <path
         style="fill:#008000;fill-opacity:1;stroke:none;stroke-width:0.51375002;stroke-miterlimit:4;stroke-dasharray:none;stroke-opacity:1"
         d="m -189.94091,162.46642 0.10025,-0.0261 0.13533,-4e-4 0.13224,0.01 0.12892,0.0289 0.0897,0.0454 0.0411,0.063 0.0197,0.0975 0.0813,-0.0999 0.11775,-0.0788 0.0737,-0.0376 0.13531,-0.0224 0.11913,-0.002 0.12474,0.0234 v 0.11812 l -0.24331,0.007 -0.14842,0.0608 -0.108,0.067 -0.0879,0.0655 -0.0726,0.1479 -0.0854,-0.15154 -0.061,-0.0515 -0.1205,-0.069 -0.37213,-0.0768 z"
         id="path938"
         inkscape:connector-curvature="0"
         sodipodi:nodetypes="ccccccccccccccccccccccccc" />
      <path
         sodipodi:nodetypes="ccccccccccccccccccccccccc"
         inkscape:connector-curvature="0"
         id="path940"
         d="m -195.12485,161.0382 0.10025,-0.0261 0.13532,-4e-4 0.13224,0.01 0.12892,0.0289 0.0898,0.0454 0.0411,0.063 0.0198,0.0975 0.0812,-0.0999 0.11775,-0.0787 0.0738,-0.0376 0.13531,-0.0224 0.11913,-0.002 0.12475,0.0234 v 0.11813 l -0.24332,0.008 -0.14842,0.0607 -0.108,0.067 -0.0879,0.0655 -0.0726,0.1479 -0.0854,-0.15154 -0.061,-0.0515 -0.1205,-0.069 -0.37213,-0.0768 z"
         style="fill:#008000;fill-opacity:1;stroke:none;stroke-width:0.51375002;stroke-miterlimit:4;stroke-dasharray:none;stroke-opacity:1" />
      <path
         sodipodi:nodetypes="ccccccccccccccccccccccccc"
         inkscape:connector-curvature="0"
         id="path942"
         d="m -188.43333,163.86821 0.10025,-0.0261 0.13532,-4e-4 0.13224,0.01 0.12893,0.0289 0.0898,0.0454 0.0411,0.063 0.0198,0.0975 0.0812,-0.0999 0.11775,-0.0788 0.0738,-0.0376 0.13532,-0.0224 0.11912,-0.002 0.12475,0.0234 v 0.11813 l -0.24331,0.007 -0.14843,0.0608 -0.108,0.067 -0.0879,0.0655 -0.0726,0.1479 -0.0854,-0.15154 -0.061,-0.0515 -0.1205,-0.069 -0.37214,-0.0768 z"
         style="fill:#008000;fill-opacity:1;stroke:none;stroke-width:0.51375002;stroke-miterlimit:4;stroke-dasharray:none;stroke-opacity:1" />
      <path
         style="fill:#008000;fill-opacity:1;stroke:none;stroke-width:0.51375002;stroke-miterlimit:4;stroke-dasharray:none;stroke-opacity:1"
         d="m -198.69543,164.60877 0.10025,-0.0261 0.13533,-4e-4 0.13223,0.01 0.12893,0.0289 0.0898,0.0454 0.0411,0.063 0.0198,0.0975 0.0812,-0.0999 0.11775,-0.0787 0.0738,-0.0376 0.13532,-0.0224 0.11912,-0.002 0.12475,0.0234 v 0.11812 l -0.24331,0.008 -0.14843,0.0607 -0.108,0.067 -0.0879,0.0655 -0.0726,0.1479 -0.0854,-0.15154 -0.061,-0.0515 -0.1205,-0.069 -0.37214,-0.0768 z"
         id="path944"
         inkscape:connector-curvature="0"
         sodipodi:nodetypes="ccccccccccccccccccccccccc" />
      <path
         sodipodi:nodetypes="ccccccccccccccccccccccccc"
         inkscape:connector-curvature="0"
         id="path946"
         d="m -198.43094,160.69436 0.10025,-0.0261 0.13532,-4e-4 0.13224,0.01 0.12893,0.0289 0.0898,0.0454 0.0411,0.063 0.0197,0.0975 0.0813,-0.0999 0.11775,-0.0787 0.0737,-0.0376 0.13531,-0.0224 0.11913,-0.002 0.12475,0.0234 v 0.11813 l -0.24331,0.008 -0.14843,0.0607 -0.108,0.067 -0.0879,0.0655 -0.0726,0.1479 -0.0854,-0.15154 -0.061,-0.0515 -0.1205,-0.069 -0.37214,-0.0768 z"
         style="fill:#008000;fill-opacity:1;stroke:none;stroke-width:0.51375002;stroke-miterlimit:4;stroke-dasharray:none;stroke-opacity:1" />
      <path
         sodipodi:nodetypes="ccccccccccccccccccccccccc"
         inkscape:connector-curvature="0"
         id="path948"
         d="m -188.48623,170.69197 0.10025,-0.0261 0.13532,-4e-4 0.13224,0.01 0.12893,0.0289 0.0897,0.0454 0.0411,0.063 0.0198,0.0975 0.0812,-0.0999 0.11775,-0.0788 0.0737,-0.0376 0.13532,-0.0224 0.11912,-0.003 0.12475,0.0234 v 0.11812 l -0.24331,0.007 -0.14843,0.0608 -0.108,0.067 -0.0879,0.0655 -0.0726,0.1479 -0.0854,-0.15154 -0.061,-0.0515 -0.1205,-0.069 -0.37214,-0.0768 z"
         style="fill:#008000;fill-opacity:1;stroke:none;stroke-width:0.51375002;stroke-miterlimit:4;stroke-dasharray:none;stroke-opacity:1" />
      <path
         style="fill:#008000;fill-opacity:1;stroke:none;stroke-width:0.51375002;stroke-miterlimit:4;stroke-dasharray:none;stroke-opacity:1"
         d="m -194.75457,170.77132 0.10025,-0.0261 0.13533,-4e-4 0.13224,0.01 0.12892,0.0289 0.0898,0.0454 0.0411,0.063 0.0197,0.0975 0.0813,-0.0999 0.11775,-0.0788 0.0737,-0.0376 0.13531,-0.0224 0.11912,-0.002 0.12475,0.0234 v 0.11812 l -0.24331,0.007 -0.14842,0.0608 -0.108,0.067 -0.0879,0.0655 -0.0726,0.1479 -0.0854,-0.15154 -0.061,-0.0515 -0.1205,-0.069 -0.37214,-0.0767 z"
         id="path950"
         inkscape:connector-curvature="0"
         sodipodi:nodetypes="ccccccccccccccccccccccccc" />
      <path
         sodipodi:nodetypes="ccccccccccccccccccccccccc"
         inkscape:connector-curvature="0"
         id="path952"
         d="m -193.88177,166.61887 0.10025,-0.0261 0.13533,-4e-4 0.13224,0.01 0.12892,0.0289 0.0898,0.0454 0.0411,0.063 0.0198,0.0975 0.0812,-0.0999 0.11775,-0.0787 0.0738,-0.0376 0.13531,-0.0224 0.11912,-0.002 0.12475,0.0234 v 0.11812 l -0.24331,0.007 -0.14842,0.0607 -0.108,0.067 -0.0879,0.0655 -0.0726,0.1479 -0.0854,-0.15154 -0.061,-0.0515 -0.1205,-0.069 -0.37214,-0.0768 z"
         style="fill:#008000;fill-opacity:1;stroke:none;stroke-width:0.51375002;stroke-miterlimit:4;stroke-dasharray:none;stroke-opacity:1" />
      <path
         sodipodi:nodetypes="ccccccccccccccccccccccccc"
         inkscape:connector-curvature="0"
         id="path954"
         d="m -181.84709,152.06162 0.10025,-0.0261 0.13532,-4e-4 0.13224,0.01 0.12892,0.0289 0.0898,0.0454 0.0411,0.063 0.0198,0.0975 0.0812,-0.0999 0.11775,-0.0787 0.0738,-0.0376 0.13531,-0.0224 0.11913,-0.002 0.12475,0.0234 v 0.11812 l -0.24332,0.008 -0.14842,0.0607 -0.108,0.067 -0.0879,0.0655 -0.0726,0.1479 -0.0854,-0.15154 -0.061,-0.0515 -0.12049,-0.069 -0.37214,-0.0768 z"
         style="fill:#008000;fill-opacity:1;stroke:none;stroke-width:0.51375002;stroke-miterlimit:4;stroke-dasharray:none;stroke-opacity:1" />
      <path
         style="fill:#008000;fill-opacity:1;stroke:none;stroke-width:0.51375002;stroke-miterlimit:4;stroke-dasharray:none;stroke-opacity:1"
         d="m -182.85214,154.28332 0.10025,-0.0261 0.13532,-4e-4 0.13224,0.01 0.12892,0.0289 0.0898,0.0454 0.0411,0.063 0.0197,0.0975 0.0813,-0.0999 0.11775,-0.0787 0.0737,-0.0376 0.13531,-0.0224 0.11913,-0.002 0.12475,0.0234 v 0.11812 l -0.24331,0.008 -0.14843,0.0607 -0.108,0.067 -0.0879,0.0655 -0.0726,0.1479 -0.0854,-0.15154 -0.061,-0.0515 -0.1205,-0.069 -0.37214,-0.0768 z"
         id="path956"
         inkscape:connector-curvature="0"
         sodipodi:nodetypes="ccccccccccccccccccccccccc" />
      <path
         sodipodi:nodetypes="ccccccccccccccccccccccccc"
         inkscape:connector-curvature="0"
         id="path958"
         d="m -183.01084,150.39536 0.10025,-0.0261 0.13532,-4e-4 0.13224,0.01 0.12893,0.0289 0.0897,0.0454 0.0411,0.063 0.0197,0.0975 0.0813,-0.0999 0.11775,-0.0788 0.0737,-0.0376 0.13531,-0.0224 0.11913,-0.002 0.12475,0.0234 v 0.11813 l -0.24331,0.007 -0.14843,0.0608 -0.108,0.067 -0.0879,0.0655 -0.0726,0.1479 -0.0854,-0.15154 -0.061,-0.0515 -0.1205,-0.069 -0.37214,-0.0768 z"
         style="fill:#008000;fill-opacity:1;stroke:none;stroke-width:0.51375002;stroke-miterlimit:4;stroke-dasharray:none;stroke-opacity:1" />
      <path
         sodipodi:nodetypes="ccccccccccccccccccccccccc"
         inkscape:connector-curvature="0"
         id="path960"
         d="m -181.00073,155.20902 0.10025,-0.0261 0.13532,-4e-4 0.13224,0.01 0.12893,0.0289 0.0897,0.0454 0.0411,0.063 0.0198,0.0975 0.0812,-0.0999 0.11775,-0.0788 0.0737,-0.0376 0.13532,-0.0224 0.11912,-0.003 0.12475,0.0234 v 0.11812 l -0.24331,0.007 -0.14843,0.0608 -0.108,0.067 -0.0879,0.0655 -0.0726,0.1479 -0.0854,-0.15154 -0.061,-0.0515 -0.1205,-0.069 -0.37214,-0.0768 z"
         style="fill:#008000;fill-opacity:1;stroke:none;stroke-width:0.51375002;stroke-miterlimit:4;stroke-dasharray:none;stroke-opacity:1" />
      <path
         sodipodi:nodetypes="ccccccccccccccccccccccccc"
         inkscape:connector-curvature="0"
         id="path962"
         d="m -184.44488,160.37698 0.10025,-0.0261 0.13533,-4e-4 0.13224,0.01 0.12892,0.0289 0.0898,0.0454 0.0411,0.063 0.0198,0.0975 0.0812,-0.0999 0.11775,-0.0787 0.0738,-0.0376 0.13531,-0.0224 0.11913,-0.002 0.12474,0.0234 v 0.11812 l -0.24331,0.008 -0.14842,0.0607 -0.108,0.067 -0.0879,0.0655 -0.0726,0.1479 -0.0854,-0.15154 -0.061,-0.0515 -0.1205,-0.069 -0.37213,-0.0768 z"
         style="fill:#008000;fill-opacity:1;stroke:none;stroke-width:0.51375002;stroke-miterlimit:4;stroke-dasharray:none;stroke-opacity:1" />
      <path
         style="fill:#008000;fill-opacity:1;stroke:none;stroke-width:0.51375002;stroke-miterlimit:4;stroke-dasharray:none;stroke-opacity:1"
         d="m -181.69421,161.64652 0.10025,-0.0261 0.13532,-4e-4 0.13224,0.01 0.12893,0.0289 0.0897,0.0454 0.0411,0.063 0.0197,0.0975 0.0813,-0.0999 0.11775,-0.0788 0.0737,-0.0376 0.13531,-0.0224 0.11913,-0.002 0.12475,0.0234 v 0.11813 l -0.24331,0.007 -0.14843,0.0608 -0.108,0.067 -0.0879,0.0655 -0.0726,0.1479 -0.0854,-0.15154 -0.061,-0.0515 -0.1205,-0.069 -0.37214,-0.0768 z"
         id="path964"
         inkscape:connector-curvature="0"
         sodipodi:nodetypes="ccccccccccccccccccccccccc" />
      <path
         style="fill:#008000;fill-opacity:1;stroke:none;stroke-width:0.51375002;stroke-miterlimit:4;stroke-dasharray:none;stroke-opacity:1"
         d="m -182.8315,155.93359 0.10025,-0.0261 0.13532,-4e-4 0.13224,0.01 0.12893,0.0289 0.0897,0.0454 0.0411,0.063 0.0198,0.0975 0.0812,-0.0999 0.11775,-0.0788 0.0738,-0.0376 0.13532,-0.0224 0.11912,-0.002 0.12475,0.0234 v 0.11812 l -0.24331,0.007 -0.14843,0.0608 -0.108,0.067 -0.0879,0.0655 -0.0726,0.1479 -0.0854,-0.15153 -0.061,-0.0515 -0.1205,-0.069 -0.37214,-0.0767 z"
         id="path966"
         inkscape:connector-curvature="0"
         sodipodi:nodetypes="ccccccccccccccccccccccccc" />
      <path
         sodipodi:nodetypes="ccccccccccccccccccccccccc"
         inkscape:connector-curvature="0"
         id="path968"
         d="m -181.13878,158.23463 0.10025,-0.0261 0.13533,-4e-4 0.13224,0.01 0.12892,0.0289 0.0897,0.0454 0.0411,0.063 0.0197,0.0975 0.0813,-0.0999 0.11775,-0.0788 0.0737,-0.0376 0.13531,-0.0224 0.11913,-0.002 0.12474,0.0234 v 0.11812 l -0.24331,0.007 -0.14842,0.0608 -0.108,0.067 -0.0879,0.0655 -0.0726,0.1479 -0.0854,-0.15154 -0.061,-0.0515 -0.1205,-0.069 -0.37213,-0.0768 z"
         style="fill:#008000;fill-opacity:1;stroke:none;stroke-width:0.51375002;stroke-miterlimit:4;stroke-dasharray:none;stroke-opacity:1" />
      <path
         style="fill:#008000;fill-opacity:1;stroke:none;stroke-width:0.51375002;stroke-miterlimit:4;stroke-dasharray:none;stroke-opacity:1"
         d="m -179.6312,159.63642 0.10025,-0.0261 0.13532,-4e-4 0.13224,0.01 0.12893,0.0289 0.0898,0.0454 0.0411,0.063 0.0198,0.0975 0.0812,-0.0999 0.11775,-0.0788 0.0738,-0.0376 0.13532,-0.0224 0.11912,-0.002 0.12475,0.0234 v 0.11813 l -0.24331,0.007 -0.14843,0.0608 -0.108,0.067 -0.0879,0.0655 -0.0726,0.1479 -0.0854,-0.15154 -0.061,-0.0515 -0.1205,-0.069 -0.37214,-0.0768 z"
         id="path970"
         inkscape:connector-curvature="0"
         sodipodi:nodetypes="ccccccccccccccccccccccccc" />
      <path
         style="fill:#008000;fill-opacity:1;stroke:none;stroke-width:0.51375002;stroke-miterlimit:4;stroke-dasharray:none;stroke-opacity:1"
         d="m -185.07964,162.38708 0.10025,-0.0261 0.13533,-4e-4 0.13224,0.01 0.12892,0.0289 0.0898,0.0454 0.0411,0.063 0.0198,0.0975 0.0812,-0.0999 0.11775,-0.0787 0.0738,-0.0376 0.13531,-0.0224 0.11912,-0.002 0.12475,0.0234 v 0.11812 l -0.24331,0.007 -0.14842,0.0607 -0.108,0.067 -0.0879,0.0655 -0.0726,0.1479 -0.0854,-0.15154 -0.061,-0.0515 -0.1205,-0.069 -0.37214,-0.0768 z"
         id="path972"
         inkscape:connector-curvature="0"
         sodipodi:nodetypes="ccccccccccccccccccccccccc" />
      <path
         style="fill:#008000;fill-opacity:1;stroke:none;stroke-width:0.51375002;stroke-miterlimit:4;stroke-dasharray:none;stroke-opacity:1"
         d="m -186.07888,149.60718 0.10025,-0.0261 0.13532,-4e-4 0.13224,0.01 0.12892,0.0289 0.0898,0.0454 0.0411,0.063 0.0198,0.0975 0.0812,-0.0999 0.11775,-0.0787 0.0738,-0.0376 0.13531,-0.0224 0.11913,-0.002 0.12475,0.0234 v 0.11812 l -0.24332,0.008 -0.14842,0.0607 -0.108,0.067 -0.0879,0.0655 -0.0726,0.1479 -0.0854,-0.15154 -0.061,-0.0515 -0.12049,-0.069 -0.37214,-0.0768 z"
         id="path974"
         inkscape:connector-curvature="0"
         sodipodi:nodetypes="ccccccccccccccccccccccccc" />
      <path
         sodipodi:nodetypes="ccccccccccccccccccccccccc"
         inkscape:connector-curvature="0"
         id="path976"
         d="m -187.08393,151.82888 0.10025,-0.0261 0.13532,-4e-4 0.13224,0.01 0.12892,0.0289 0.0898,0.0454 0.0411,0.063 0.0197,0.0975 0.0813,-0.0999 0.11775,-0.0787 0.0737,-0.0376 0.13531,-0.0224 0.11913,-0.002 0.12475,0.0234 v 0.11812 l -0.24331,0.008 -0.14843,0.0607 -0.108,0.067 -0.0879,0.0655 -0.0726,0.1479 -0.0854,-0.15154 -0.061,-0.0515 -0.1205,-0.069 -0.37214,-0.0768 z"
         style="fill:#008000;fill-opacity:1;stroke:none;stroke-width:0.51375002;stroke-miterlimit:4;stroke-dasharray:none;stroke-opacity:1" />
      <path
         style="fill:#008000;fill-opacity:1;stroke:none;stroke-width:0.51375002;stroke-miterlimit:4;stroke-dasharray:none;stroke-opacity:1"
         d="m -187.24263,147.94092 0.10025,-0.0261 0.13532,-4e-4 0.13224,0.01 0.12893,0.0289 0.0897,0.0454 0.0411,0.063 0.0197,0.0975 0.0813,-0.0999 0.11775,-0.0788 0.0737,-0.0376 0.13531,-0.0224 0.11913,-0.002 0.12475,0.0234 v 0.11813 l -0.24331,0.007 -0.14843,0.0608 -0.108,0.067 -0.0879,0.0655 -0.0726,0.1479 -0.0854,-0.15154 -0.061,-0.0515 -0.1205,-0.069 -0.37214,-0.0768 z"
         id="path978"
         inkscape:connector-curvature="0"
         sodipodi:nodetypes="ccccccccccccccccccccccccc" />
      <path
         style="fill:#008000;fill-opacity:1;stroke:none;stroke-width:0.51375002;stroke-miterlimit:4;stroke-dasharray:none;stroke-opacity:1"
         d="m -185.23252,152.75458 0.10025,-0.0261 0.13532,-4e-4 0.13224,0.01 0.12893,0.0289 0.0897,0.0454 0.0411,0.063 0.0198,0.0975 0.0812,-0.0999 0.11775,-0.0788 0.0737,-0.0376 0.13532,-0.0224 0.11912,-0.003 0.12475,0.0234 v 0.11812 l -0.24331,0.007 -0.14843,0.0608 -0.108,0.067 -0.0879,0.0655 -0.0726,0.1479 -0.0854,-0.15154 -0.061,-0.0515 -0.1205,-0.069 -0.37214,-0.0768 z"
         id="path980"
         inkscape:connector-curvature="0"
         sodipodi:nodetypes="ccccccccccccccccccccccccc" />
      <path
         style="fill:#008000;fill-opacity:1;stroke:none;stroke-width:0.51375002;stroke-miterlimit:4;stroke-dasharray:none;stroke-opacity:1"
         d="m -188.67667,157.92254 0.10025,-0.0261 0.13533,-4e-4 0.13224,0.01 0.12892,0.0289 0.0898,0.0454 0.0411,0.063 0.0198,0.0975 0.0812,-0.0999 0.11775,-0.0787 0.0738,-0.0376 0.13531,-0.0224 0.11913,-0.002 0.12474,0.0234 v 0.11812 l -0.24331,0.008 -0.14842,0.0607 -0.108,0.067 -0.0879,0.0655 -0.0726,0.1479 -0.0854,-0.15154 -0.061,-0.0515 -0.1205,-0.069 -0.37213,-0.0768 z"
         id="path982"
         inkscape:connector-curvature="0"
         sodipodi:nodetypes="ccccccccccccccccccccccccc" />
      <path
         sodipodi:nodetypes="ccccccccccccccccccccccccc"
         inkscape:connector-curvature="0"
         id="path984"
         d="m -185.926,159.19208 0.10025,-0.0261 0.13532,-4e-4 0.13224,0.01 0.12893,0.0289 0.0897,0.0454 0.0411,0.063 0.0197,0.0975 0.0813,-0.0999 0.11775,-0.0788 0.0737,-0.0376 0.13531,-0.0224 0.11913,-0.002 0.12475,0.0234 v 0.11813 l -0.24331,0.007 -0.14843,0.0608 -0.108,0.067 -0.0879,0.0655 -0.0726,0.1479 -0.0854,-0.15154 -0.061,-0.0515 -0.1205,-0.069 -0.37214,-0.0768 z"
         style="fill:#008000;fill-opacity:1;stroke:none;stroke-width:0.51375002;stroke-miterlimit:4;stroke-dasharray:none;stroke-opacity:1" />
      <path
         sodipodi:nodetypes="ccccccccccccccccccccccccc"
         inkscape:connector-curvature="0"
         id="path986"
         d="m -187.06329,153.47915 0.10025,-0.0261 0.13532,-4e-4 0.13224,0.01 0.12893,0.0289 0.0897,0.0454 0.0411,0.063 0.0198,0.0975 0.0812,-0.0999 0.11775,-0.0788 0.0738,-0.0376 0.13532,-0.0224 0.11912,-0.002 0.12475,0.0234 v 0.11812 l -0.24331,0.007 -0.14843,0.0608 -0.108,0.067 -0.0879,0.0655 -0.0726,0.1479 -0.0854,-0.15153 -0.061,-0.0515 -0.1205,-0.069 -0.37214,-0.0767 z"
         style="fill:#008000;fill-opacity:1;stroke:none;stroke-width:0.51375002;stroke-miterlimit:4;stroke-dasharray:none;stroke-opacity:1" />
      <path
         style="fill:#008000;fill-opacity:1;stroke:none;stroke-width:0.51375002;stroke-miterlimit:4;stroke-dasharray:none;stroke-opacity:1"
         d="m -185.37057,155.78019 0.10025,-0.0261 0.13533,-4e-4 0.13224,0.01 0.12892,0.0289 0.0897,0.0454 0.0411,0.063 0.0197,0.0975 0.0813,-0.0999 0.11775,-0.0788 0.0737,-0.0376 0.13531,-0.0224 0.11913,-0.002 0.12474,0.0234 v 0.11812 l -0.24331,0.007 -0.14842,0.0608 -0.108,0.067 -0.0879,0.0655 -0.0726,0.1479 -0.0854,-0.15154 -0.061,-0.0515 -0.1205,-0.069 -0.37213,-0.0768 z"
         id="path988"
         inkscape:connector-curvature="0"
         sodipodi:nodetypes="ccccccccccccccccccccccccc" />
      <path
         sodipodi:nodetypes="ccccccccccccccccccccccccc"
         inkscape:connector-curvature="0"
         id="path990"
         d="m -183.86299,157.18198 0.10025,-0.0261 0.13532,-4e-4 0.13224,0.01 0.12893,0.0289 0.0898,0.0454 0.0411,0.063 0.0198,0.0975 0.0812,-0.0999 0.11775,-0.0788 0.0738,-0.0376 0.13532,-0.0224 0.11912,-0.002 0.12475,0.0234 v 0.11813 l -0.24331,0.007 -0.14843,0.0608 -0.108,0.067 -0.0879,0.0655 -0.0726,0.1479 -0.0854,-0.15154 -0.061,-0.0515 -0.1205,-0.069 -0.37214,-0.0768 z"
         style="fill:#008000;fill-opacity:1;stroke:none;stroke-width:0.51375002;stroke-miterlimit:4;stroke-dasharray:none;stroke-opacity:1" />
      <path
         sodipodi:nodetypes="ccccccccccccccccccccccccc"
         inkscape:connector-curvature="0"
         id="path992"
         d="m -184.78341,165.87831 0.10025,-0.0261 0.13533,-4e-4 0.13224,0.01 0.12892,0.0289 0.0898,0.0454 0.0411,0.063 0.0198,0.0975 0.0812,-0.0999 0.11775,-0.0787 0.0738,-0.0376 0.13531,-0.0224 0.11912,-0.002 0.12475,0.0234 v 0.11812 l -0.24331,0.007 -0.14842,0.0607 -0.108,0.067 -0.0879,0.0655 -0.0726,0.1479 -0.0854,-0.15154 -0.061,-0.0515 -0.1205,-0.069 -0.37214,-0.0768 z"
         style="fill:#008000;fill-opacity:1;stroke:none;stroke-width:0.51375002;stroke-miterlimit:4;stroke-dasharray:none;stroke-opacity:1" />
      <path
         style="fill:#008000;fill-opacity:1;stroke:none;stroke-width:0.51375002;stroke-miterlimit:4;stroke-dasharray:none;stroke-opacity:1"
         d="m -183.74662,168.77709 0.10025,-0.0261 0.13533,-4e-4 0.13224,0.01 0.12892,0.0289 0.0898,0.0454 0.0411,0.063 0.0198,0.0975 0.0812,-0.0999 0.11775,-0.0787 0.0738,-0.0376 0.13531,-0.0224 0.11912,-0.002 0.12475,0.0234 v 0.11812 l -0.24331,0.007 -0.14842,0.0607 -0.108,0.067 -0.0879,0.0655 -0.0726,0.1479 -0.0854,-0.15154 -0.061,-0.0515 -0.1205,-0.069 -0.37214,-0.0768 z"
         id="path994"
         inkscape:connector-curvature="0"
         sodipodi:nodetypes="ccccccccccccccccccccccccc" />
      <path
         sodipodi:nodetypes="ccccccccccccccccccccccccc"
         inkscape:connector-curvature="0"
         id="path996"
         d="m -178.96469,165.64556 0.10025,-0.0261 0.13533,-4e-4 0.13224,0.01 0.12892,0.0289 0.0898,0.0454 0.0411,0.063 0.0198,0.0975 0.0812,-0.0999 0.11775,-0.0787 0.0738,-0.0376 0.13531,-0.0224 0.11912,-0.002 0.12475,0.0234 v 0.11812 l -0.24331,0.007 -0.14842,0.0607 -0.108,0.067 -0.0879,0.0655 -0.0726,0.1479 -0.0854,-0.15154 -0.061,-0.0515 -0.1205,-0.069 -0.37214,-0.0768 z"
         style="fill:#008000;fill-opacity:1;stroke:none;stroke-width:0.51375002;stroke-miterlimit:4;stroke-dasharray:none;stroke-opacity:1" />
      <path
         style="fill:#008000;fill-opacity:1;stroke:none;stroke-width:0.51375002;stroke-miterlimit:4;stroke-dasharray:none;stroke-opacity:1"
         d="m -179.38787,170.82951 0.10025,-0.0261 0.13533,-4e-4 0.13224,0.01 0.12892,0.0289 0.0898,0.0454 0.0411,0.063 0.0198,0.0975 0.0812,-0.0999 0.11775,-0.0787 0.0738,-0.0376 0.13531,-0.0224 0.11912,-0.002 0.12475,0.0234 v 0.11812 l -0.24331,0.007 -0.14842,0.0607 -0.108,0.067 -0.0879,0.0655 -0.0726,0.1479 -0.0854,-0.15154 -0.061,-0.0515 -0.1205,-0.069 -0.37214,-0.0768 z"
         id="path998"
         inkscape:connector-curvature="0"
         sodipodi:nodetypes="ccccccccccccccccccccccccc" />
      <path
         sodipodi:nodetypes="ccccccccccccccccccccccccc"
         inkscape:connector-curvature="0"
         id="path1000"
         d="m -178.88006,163.14881 0.10025,-0.0261 0.13533,-4e-4 0.13224,0.01 0.12892,0.0289 0.0898,0.0454 0.0411,0.063 0.0198,0.0975 0.0812,-0.0999 0.11775,-0.0787 0.0738,-0.0376 0.13531,-0.0224 0.11912,-0.002 0.12475,0.0234 v 0.11812 l -0.24331,0.007 -0.14842,0.0607 -0.108,0.067 -0.0879,0.0655 -0.0726,0.1479 -0.0854,-0.15154 -0.061,-0.0515 -0.1205,-0.069 -0.37214,-0.0768 z"
         style="fill:#008000;fill-opacity:1;stroke:none;stroke-width:0.51375002;stroke-miterlimit:4;stroke-dasharray:none;stroke-opacity:1" />
      <path
         style="fill:#008000;fill-opacity:1;stroke:none;stroke-width:0.51375002;stroke-miterlimit:4;stroke-dasharray:none;stroke-opacity:1"
         d="m -183.53503,164.14328 0.10025,-0.0261 0.13533,-4e-4 0.13224,0.01 0.12892,0.0289 0.0898,0.0454 0.0411,0.063 0.0198,0.0975 0.0812,-0.0999 0.11775,-0.0787 0.0738,-0.0376 0.13531,-0.0224 0.11912,-0.002 0.12475,0.0234 v 0.11812 l -0.24331,0.007 -0.14842,0.0607 -0.108,0.067 -0.0879,0.0655 -0.0726,0.1479 -0.0854,-0.15154 -0.061,-0.0515 -0.1205,-0.069 -0.37214,-0.0768 z"
         id="path1002"
         inkscape:connector-curvature="0"
         sodipodi:nodetypes="ccccccccccccccccccccccccc" />
      <path
         sodipodi:nodetypes="ccccccccccccccccccccccccc"
         inkscape:connector-curvature="0"
         id="path1004"
         d="m -187.36481,167.06322 0.10025,-0.0261 0.13533,-4e-4 0.13224,0.01 0.12892,0.0289 0.0898,0.0454 0.0411,0.063 0.0198,0.0975 0.0812,-0.0999 0.11775,-0.0787 0.0738,-0.0376 0.13531,-0.0224 0.11912,-0.002 0.12475,0.0234 v 0.11812 l -0.24331,0.007 -0.14842,0.0607 -0.108,0.067 -0.0879,0.0655 -0.0726,0.1479 -0.0854,-0.15154 -0.061,-0.0515 -0.1205,-0.069 -0.37214,-0.0768 z"
         style="fill:#008000;fill-opacity:1;stroke:none;stroke-width:0.51375002;stroke-miterlimit:4;stroke-dasharray:none;stroke-opacity:1" />
      <path
         style="fill:#008000;fill-opacity:1;stroke:none;stroke-width:0.51375002;stroke-miterlimit:4;stroke-dasharray:none;stroke-opacity:1"
         d="m -181.08059,164.29139 0.10025,-0.0261 0.13533,-4e-4 0.13224,0.01 0.12892,0.0289 0.0898,0.0454 0.0411,0.063 0.0198,0.0975 0.0812,-0.0999 0.11775,-0.0787 0.0738,-0.0376 0.13531,-0.0224 0.11912,-0.002 0.12475,0.0234 v 0.11812 l -0.24331,0.007 -0.14842,0.0607 -0.108,0.067 -0.0879,0.0655 -0.0726,0.1479 -0.0854,-0.15154 -0.061,-0.0515 -0.1205,-0.069 -0.37214,-0.0768 z"
         id="path1006"
         inkscape:connector-curvature="0"
         sodipodi:nodetypes="ccccccccccccccccccccccccc" />
      <path
         sodipodi:nodetypes="ccccccccccccccccccccccccc"
         inkscape:connector-curvature="0"
         id="path1008"
         d="m -180.99596,167.42292 0.10025,-0.0261 0.13533,-4e-4 0.13224,0.01 0.12892,0.0289 0.0898,0.0454 0.0411,0.063 0.0198,0.0975 0.0812,-0.0999 0.11775,-0.0787 0.0738,-0.0376 0.13531,-0.0224 0.11912,-0.002 0.12475,0.0234 v 0.11812 l -0.24331,0.007 -0.14842,0.0607 -0.108,0.067 -0.0879,0.0655 -0.0726,0.1479 -0.0854,-0.15154 -0.061,-0.0515 -0.1205,-0.069 -0.37214,-0.0768 z"
         style="fill:#008000;fill-opacity:1;stroke:none;stroke-width:0.51375002;stroke-miterlimit:4;stroke-dasharray:none;stroke-opacity:1" />
      <path
         style="fill:#008000;fill-opacity:1;stroke:none;stroke-width:0.51375002;stroke-miterlimit:4;stroke-dasharray:none;stroke-opacity:1"
         d="m -185.8202,169.41186 0.10025,-0.0261 0.13533,-4e-4 0.13224,0.01 0.12892,0.0289 0.0898,0.0454 0.0411,0.063 0.0198,0.0975 0.0812,-0.0999 0.11775,-0.0787 0.0738,-0.0376 0.13531,-0.0224 0.11912,-0.002 0.12475,0.0234 v 0.11812 l -0.24331,0.007 -0.14842,0.0607 -0.108,0.067 -0.0879,0.0655 -0.0726,0.1479 -0.0854,-0.15154 -0.061,-0.0515 -0.1205,-0.069 -0.37214,-0.0768 z"
         id="path1010"
         inkscape:connector-curvature="0"
         sodipodi:nodetypes="ccccccccccccccccccccccccc" />
      <path
         sodipodi:nodetypes="ccccccccccccccccccccccccc"
         inkscape:connector-curvature="0"
         id="path1012"
         d="m -181.63073,169.81388 0.10025,-0.0261 0.13533,-4e-4 0.13224,0.01 0.12892,0.0289 0.0898,0.0454 0.0411,0.063 0.0198,0.0975 0.0812,-0.0999 0.11775,-0.0787 0.0738,-0.0376 0.13531,-0.0224 0.11912,-0.002 0.12475,0.0234 v 0.11812 l -0.24331,0.007 -0.14842,0.0607 -0.108,0.067 -0.0879,0.0655 -0.0726,0.1479 -0.0854,-0.15154 -0.061,-0.0515 -0.1205,-0.069 -0.37214,-0.0768 z"
         style="fill:#008000;fill-opacity:1;stroke:none;stroke-width:0.51375002;stroke-miterlimit:4;stroke-dasharray:none;stroke-opacity:1" />
      <path
         style="fill:#008000;fill-opacity:1;stroke:none;stroke-width:0.51375002;stroke-miterlimit:4;stroke-dasharray:none;stroke-opacity:1"
         d="m -179.09634,152.52773 0.10025,-0.0261 0.13532,-4e-4 0.13224,0.01 0.12893,0.0289 0.0897,0.0454 0.0411,0.063 0.0197,0.0975 0.0813,-0.0999 0.11775,-0.0788 0.0737,-0.0376 0.13531,-0.0224 0.11913,-0.002 0.12475,0.0234 v 0.11813 l -0.24331,0.007 -0.14843,0.0608 -0.108,0.067 -0.0879,0.0655 -0.0726,0.1479 -0.0854,-0.15154 -0.061,-0.0515 -0.1205,-0.069 -0.37214,-0.0768 z"
         id="path1014"
         inkscape:connector-curvature="0"
         sodipodi:nodetypes="ccccccccccccccccccccccccc" />
      <path
         sodipodi:nodetypes="ccccccccccccccccccccccccc"
         inkscape:connector-curvature="0"
         id="path1016"
         d="m -179.59958,148.59996 0.10025,-0.0261 0.13532,-4e-4 0.13224,0.01 0.12893,0.0289 0.0897,0.0454 0.0411,0.063 0.0197,0.0975 0.0813,-0.0999 0.11775,-0.0788 0.0737,-0.0376 0.13531,-0.0224 0.11913,-0.002 0.12475,0.0234 v 0.11813 l -0.24331,0.007 -0.14843,0.0608 -0.108,0.067 -0.0879,0.0655 -0.0726,0.1479 -0.0854,-0.15154 -0.061,-0.0515 -0.1205,-0.069 -0.37214,-0.0768 z"
         style="fill:#008000;fill-opacity:1;stroke:none;stroke-width:0.51375002;stroke-miterlimit:4;stroke-dasharray:none;stroke-opacity:1" />
      <path
         style="fill:#008000;fill-opacity:1;stroke:none;stroke-width:0.51375002;stroke-miterlimit:4;stroke-dasharray:none;stroke-opacity:1"
         d="m -183.13053,148.06134 0.10025,-0.0261 0.13532,-4e-4 0.13224,0.01 0.12893,0.0289 0.0897,0.0454 0.0411,0.063 0.0197,0.0975 0.0813,-0.0999 0.11775,-0.0788 0.0737,-0.0376 0.13531,-0.0224 0.11913,-0.002 0.12475,0.0234 v 0.11813 l -0.24331,0.007 -0.14843,0.0608 -0.108,0.067 -0.0879,0.0655 -0.0726,0.1479 -0.0854,-0.15154 -0.061,-0.0515 -0.1205,-0.069 -0.37214,-0.0768 z"
         id="path1018"
         inkscape:connector-curvature="0"
         sodipodi:nodetypes="ccccccccccccccccccccccccc" />
    </g>
    <circle
       style="fill:#1a1a1a;fill-opacity:1;stroke:none;stroke-width:0.32684481;stroke-miterlimit:4;stroke-dasharray:none;stroke-opacity:1"
       id="path1092"
       cx="-213.36894"
       cy="150.93019"
       r="4.2333331" />
    <path
       style="fill:#ffffff;fill-opacity:1;stroke:none;stroke-width:0.44918945;stroke-miterlimit:4;stroke-dasharray:none;stroke-opacity:1"
       d="m -214.33648,147.93678 2.99341,2.99342 -2.99341,2.99341 z"
       id="rect1094"
       inkscape:connector-curvature="0"
       sodipodi:nodetypes="cccc" />
    <circle
       r="4.2333331"
       cy="150.45142"
       cx="223.21371"
       id="circle1097"
       style="fill:#1a1a1a;fill-opacity:1;stroke:none;stroke-width:0.32684481;stroke-miterlimit:4;stroke-dasharray:none;stroke-opacity:1"
       transform="scale(-1,1)" />
    <path
       sodipodi:nodetypes="cccc"
       inkscape:connector-curvature="0"
       id="path1099"
       d="m -222.24617,147.45801 -2.99341,2.99342 2.99341,2.99341 z"
       style="fill:#ffffff;fill-opacity:1;stroke:none;stroke-width:0.44918945;stroke-miterlimit:4;stroke-dasharray:none;stroke-opacity:1" />
    <g
       id="g1107"
       transform="rotate(90,-218.24644,141.47442)">
      <circle
         r="4.2333331"
         cy="141.53427"
         cx="217.88736"
         id="circle1101"
         style="fill:#1a1a1a;fill-opacity:1;stroke:none;stroke-width:0.32684481;stroke-miterlimit:4;stroke-dasharray:none;stroke-opacity:1"
         transform="scale(-1,1)" />
      <path
         sodipodi:nodetypes="cccc"
         inkscape:connector-curvature="0"
         id="path1103"
         d="m -216.91982,138.54086 -2.99341,2.99342 2.99341,2.99341 z"
         style="fill:#ffffff;fill-opacity:1;stroke:none;stroke-width:0.44918945;stroke-miterlimit:4;stroke-dasharray:none;stroke-opacity:1" />
    </g>
    <g
       transform="rotate(-90,-209.74822,150.75065)"
       id="g1113">
      <circle
         transform="scale(-1,1)"
         style="fill:#1a1a1a;fill-opacity:1;stroke:none;stroke-width:0.32684481;stroke-miterlimit:4;stroke-dasharray:none;stroke-opacity:1"
         id="circle1109"
         cx="217.88736"
         cy="141.53427"
         r="4.2333331" />
      <path
         style="fill:#ffffff;fill-opacity:1;stroke:none;stroke-width:0.44918945;stroke-miterlimit:4;stroke-dasharray:none;stroke-opacity:1"
         d="m -216.91982,138.54086 -2.99341,2.99342 2.99341,2.99341 z"
         id="path1111"
         inkscape:connector-curvature="0"
         sodipodi:nodetypes="cccc" />
    </g>
  </g>
</svg>
